<svg aria-hidden="true" style="position: absolute; width: 0; height: 0; overflow: hidden;" version="1.1" xmlns="http://www.w3.org/2000/svg" xmlns:xlink="http://www.w3.org/1999/xlink">
<defs>
<symbol id="fb" viewBox="0 0 32 32">
  <path d="M22.952 17.999l0.83-5.791h-5.188v-3.758c0-1.584 0.724-3.129 3.048-3.129h2.358v-4.93c0 0-2.14-0.391-4.186-0.391-4.272 0-7.064 2.774-7.064 7.795v4.414h-4.749v5.791h4.749v14h5.844v-14l4.358-0.001z"></path>
</symbol>
<symbol id="instag" viewBox="0 0 32 32">
  <path d="M9.404 0.096c1.706-0.079 2.25-0.096 6.596-0.096s4.89 0.019 6.595 0.096c1.705 0.077 2.868 0.349 3.887 0.743 1.066 0.403 2.033 1.033 2.833 1.847 0.815 0.799 1.443 1.764 1.844 2.832 0.396 1.018 0.666 2.182 0.745 3.884 0.079 1.709 0.096 2.253 0.096 6.598 0 4.346-0.019 4.89-0.096 6.596-0.077 1.702-0.349 2.865-0.745 3.884-0.401 1.068-1.031 2.035-1.844 2.835-0.8 0.815-1.767 1.443-2.833 1.844-1.018 0.396-2.182 0.666-3.884 0.745-1.708 0.079-2.252 0.096-6.598 0.096s-4.89-0.019-6.596-0.096c-1.702-0.077-2.865-0.349-3.884-0.745-1.068-0.402-2.035-1.031-2.835-1.844-0.814-0.799-1.444-1.766-1.846-2.833-0.394-1.018-0.665-2.182-0.743-3.884-0.079-1.709-0.096-2.253-0.096-6.598 0-4.346 0.019-4.89 0.096-6.595s0.349-2.868 0.743-3.887c0.403-1.068 1.033-2.034 1.847-2.833 0.799-0.814 1.765-1.444 2.832-1.846 1.018-0.394 2.183-0.665 3.885-0.743zM22.465 2.976c-1.687-0.077-2.193-0.093-6.465-0.093s-4.778 0.016-6.465 0.093c-1.561 0.071-2.407 0.332-2.972 0.551-0.746 0.291-1.28 0.636-1.84 1.196-0.531 0.516-0.939 1.145-1.196 1.84-0.22 0.564-0.48 1.411-0.551 2.972-0.077 1.687-0.093 2.193-0.093 6.465s0.016 4.778 0.093 6.465c0.071 1.561 0.332 2.407 0.551 2.972 0.256 0.694 0.665 1.324 1.196 1.84 0.516 0.531 1.146 0.94 1.84 1.196 0.564 0.22 1.411 0.48 2.972 0.551 1.687 0.077 2.192 0.093 6.465 0.093s4.778-0.016 6.465-0.093c1.561-0.071 2.407-0.332 2.972-0.551 0.746-0.291 1.28-0.636 1.84-1.196 0.531-0.516 0.94-1.146 1.196-1.84 0.22-0.564 0.48-1.411 0.551-2.972 0.077-1.687 0.093-2.193 0.093-6.465s-0.016-4.778-0.093-6.465c-0.071-1.561-0.332-2.407-0.551-2.972-0.291-0.746-0.636-1.28-1.196-1.84-0.516-0.531-1.145-0.939-1.84-1.196-0.564-0.22-1.411-0.48-2.972-0.551zM13.956 20.932c1.141 0.475 2.412 0.539 3.596 0.181s2.206-1.115 2.893-2.143c0.687-1.028 0.996-2.262 0.873-3.493s-0.668-2.38-1.543-3.252c-0.558-0.558-1.233-0.985-1.976-1.251s-1.536-0.363-2.321-0.286-1.544 0.328-2.221 0.734c-0.677 0.406-1.255 0.957-1.694 1.613s-0.726 1.401-0.842 2.182c-0.116 0.781-0.057 1.577 0.172 2.332s0.622 1.45 1.152 2.035c0.53 0.585 1.183 1.045 1.912 1.347zM10.185 10.185c0.764-0.764 1.67-1.369 2.668-1.783s2.067-0.626 3.147-0.626c1.080 0 2.149 0.213 3.147 0.626s1.904 1.019 2.668 1.783c0.764 0.764 1.369 1.67 1.783 2.668s0.626 2.067 0.626 3.147c0 1.080-0.213 2.149-0.626 3.147s-1.019 1.904-1.783 2.668c-1.542 1.542-3.634 2.409-5.815 2.409s-4.273-0.866-5.815-2.409c-1.542-1.542-2.409-3.634-2.409-5.815s0.866-4.273 2.409-5.815zM26.048 9.001c0.189-0.179 0.341-0.393 0.446-0.631s0.161-0.495 0.165-0.755c0.004-0.26-0.045-0.518-0.142-0.759s-0.243-0.46-0.427-0.644c-0.184-0.184-0.403-0.329-0.644-0.427s-0.499-0.146-0.759-0.142c-0.26 0.004-0.517 0.060-0.755 0.165s-0.453 0.256-0.631 0.446c-0.347 0.368-0.537 0.857-0.53 1.363s0.212 0.989 0.569 1.347 0.841 0.562 1.347 0.569c0.506 0.007 0.995-0.183 1.363-0.53z"></path>
</symbol>
<symbol id="telegram" viewBox="0 0 32 32">
  <path d="M31.909 5.352l-4.829 22.773c-0.364 1.607-1.314 2.007-2.665 1.25l-7.358-5.422-3.55 3.415c-0.393 0.393-0.722 0.722-1.479 0.722l0.529-7.494 13.637-12.323c0.593-0.529-0.129-0.822-0.922-0.293l-16.859 10.615-7.258-2.272c-1.579-0.493-1.607-1.579 0.329-2.336l28.388-10.937c1.314-0.493 2.465 0.293 2.036 2.3z"></path>
</symbol>
</defs>
</svg>
