<svg width="22" height="22" viewBox="0 0 22 22" fill="none" xmlns="http://www.w3.org/2000/svg">
<path fill-rule="evenodd" clip-rule="evenodd" d="M3.00007 4.5C2.11141 4.5 1.50007 5.12427 1.50007 5.75V16.25C1.50007 16.8757 2.11141 17.5 3.00007 17.5H19.0001C19.8887 17.5 20.5001 16.8757 20.5001 16.25V5.75C20.5001 5.12427 19.8887 4.5 19.0001 4.5H3.00007ZM0.500071 5.75C0.500071 4.45073 1.68873 3.5 3.00007 3.5H19.0001C20.3114 3.5 21.5001 4.45073 21.5001 5.75V16.25C21.5001 17.5493 20.3114 18.5 19.0001 18.5H3.00007C1.68873 18.5 0.500071 17.5493 0.500071 16.25V5.75Z" fill="white"/>
<path fill-rule="evenodd" clip-rule="evenodd" d="M0.573694 6.73884C0.717926 6.50336 1.02575 6.42939 1.26123 6.57362L11.0001 12.5387L20.7389 6.57362C20.9744 6.42939 21.2822 6.50336 21.4265 6.73884C21.5707 6.97433 21.4967 7.28214 21.2612 7.42638L11.2612 13.5514C11.101 13.6495 10.8992 13.6495 10.7389 13.5514L0.738915 7.42638C0.503434 7.28214 0.429462 6.97433 0.573694 6.73884Z" fill="white"/>
</svg>
