<svg aria-hidden="true" style="position: absolute; width: 0; height: 0; overflow: hidden;" version="1.1" xmlns="http://www.w3.org/2000/svg" xmlns:xlink="http://www.w3.org/1999/xlink">
<defs>
<symbol id="comf" viewBox="0 0 32 32">
  <path d="M25.761 11.751c0-0.345-0.28-0.625-0.625-0.625s-0.625 0.28-0.625 0.625c0 0.431-0.351 0.782-0.782 0.782-0.345 0-0.625 0.28-0.625 0.625s0.28 0.625 0.625 0.625c0.431 0 0.782 0.351 0.782 0.782 0 0.345 0.28 0.625 0.625 0.625s0.625-0.28 0.625-0.625c0-0.431 0.351-0.782 0.782-0.782 0.345 0 0.625-0.28 0.625-0.625s-0.28-0.625-0.625-0.625c-0.431 0-0.782-0.351-0.782-0.782z"></path>
  <path d="M6.316 3.201c0.431 0 0.782 0.351 0.782 0.782 0 0.345 0.28 0.625 0.625 0.625s0.625-0.28 0.625-0.625c0-0.431 0.351-0.782 0.782-0.782 0.345 0 0.625-0.28 0.625-0.625s-0.28-0.625-0.625-0.625c-0.431 0-0.782-0.351-0.782-0.782 0-0.345-0.28-0.625-0.625-0.625s-0.625 0.28-0.625 0.625c0 0.431-0.351 0.782-0.782 0.782-0.345 0-0.625 0.28-0.625 0.625s0.28 0.625 0.625 0.625z"></path>
  <path d="M31.997 14.032c-0.034-1.368-0.397-2.727-1.051-3.931-0.165-0.303-0.544-0.416-0.848-0.251s-0.416 0.544-0.251 0.848c0.568 1.045 0.871 2.177 0.9 3.365 0.023 0.937-0.124 1.854-0.437 2.726-0.003 0.009-4.067 11.847-4.067 11.847-0.322 0.939-1.206 1.57-2.199 1.57-1.080 0-2.010-0.733-2.261-1.783l-0.861-3.592c-0.244-1.017-1.11-1.7-2.156-1.7s-1.912 0.683-2.156 1.7l-0.861 3.592c-0.252 1.050-1.182 1.783-2.261 1.783-0.993 0-1.877-0.631-2.199-1.57l-1.769-5.152c0.225-0.304 0.346-0.67 0.346-1.055 0-0.475-0.185-0.921-0.521-1.257l-0.334-0.334 2.44-2.44c0.85 0.658 1.886 1.015 2.974 1.015 0.029 0 0.058-0 0.087-0.001 1.302-0.023 2.517-0.551 3.422-1.488s1.39-2.17 1.367-3.471c-0.023-1.302-0.551-2.517-1.488-3.422s-2.17-1.391-3.471-1.367c-1.302 0.023-2.517 0.551-3.422 1.488-1.7 1.76-1.807 4.48-0.354 6.363l-2.306 2.306c0 0-1.037-3.021-1.040-3.029-0.314-0.872-0.461-1.79-0.438-2.728 0.048-1.931 0.837-3.751 2.221-5.125s3.211-2.149 5.143-2.182c1.528-0.027 3.008 0.406 4.275 1.247-0.002-0.001 0.002 0.001 0 0 0.453 0.301 0.876 0.654 1.255 1.046 0.123 0.127 0.286 0.191 0.45 0.191 0.156 0 0.313-0.058 0.434-0.175 0.249-0.24 0.256-0.635 0.016-0.884-0.215-0.223-0.443-0.435-0.68-0.634 1.075-0.54 2.264-0.812 3.487-0.791 0.911 0.016 1.801 0.196 2.645 0.535 0.32 0.129 0.684-0.026 0.813-0.346s-0.026-0.684-0.346-0.813c-0.986-0.397-2.026-0.607-3.090-0.626-1.644-0.029-3.241 0.398-4.64 1.236-1.399-0.838-2.994-1.265-4.64-1.236-2.255 0.039-4.387 0.942-6.002 2.545s-2.535 3.727-2.591 5.982c-0.027 1.099 0.147 2.175 0.518 3.199 0.001 0.002 0.001 0.003 0.002 0.005l0.642 1.872c-0.053-0.005-0.106-0.007-0.159-0.007-0.475 0-0.921 0.185-1.257 0.521l-5.095 5.095c-0.244 0.244-0.244 0.64 0 0.884s0.64 0.244 0.884 0l5.095-5.096c0.1-0.1 0.232-0.155 0.373-0.155s0.274 0.055 0.373 0.155l1.551 1.551c0.1 0.1 0.155 0.232 0.155 0.373s-0.055 0.274-0.155 0.373l-7.582 7.582c-0.244 0.244-0.244 0.64 0 0.884 0.122 0.122 0.282 0.183 0.442 0.183s0.32-0.061 0.442-0.183l6.78-6.78 1.563 4.553c0.496 1.444 1.855 2.415 3.382 2.415 1.66 0 3.090-1.127 3.477-2.742l0.861-3.592c0.131-0.547 0.572-0.742 0.94-0.742s0.809 0.195 0.94 0.742l0.861 3.592c0.387 1.614 1.817 2.742 3.477 2.742 1.527 0 2.886-0.97 3.382-2.415l4.052-11.804c0.001-0.002 0.002-0.005 0.002-0.007 0.371-1.023 0.545-2.099 0.518-3.199zM11.82 12.019c0.673-0.697 1.576-1.089 2.544-1.106 0.022-0 0.043-0.001 0.065-0.001 0.944 0 1.835 0.36 2.516 1.017 0.697 0.673 1.089 1.576 1.106 2.544s-0.344 1.885-1.017 2.581-1.576 1.089-2.544 1.106c-0.97 0.018-1.885-0.344-2.581-1.017-1.438-1.388-1.478-3.688-0.089-5.126z"></path>
  <path d="M28.65 8.822c0.345 0 0.625-0.28 0.625-0.625s-0.28-0.625-0.625-0.625c-0.345 0-0.625 0.28-0.625 0.625s0.28 0.625 0.625 0.625z"></path>
</symbol>
<symbol id="mail" viewBox="0 0 32 32">
  <path d="M4.364 6.545c-1.293 0-2.182 0.908-2.182 1.818v15.273c0 0.91 0.889 1.818 2.182 1.818h23.273c1.293 0 2.182-0.908 2.182-1.818v-15.273c0-0.91-0.889-1.818-2.182-1.818h-23.273zM0.727 8.364c0-1.89 1.729-3.273 3.636-3.273h23.273c1.907 0 3.636 1.383 3.636 3.273v15.273c0 1.89-1.729 3.273-3.636 3.273h-23.273c-1.907 0-3.636-1.383-3.636-3.273v-15.273z"></path>
  <path d="M0.834 9.802c0.21-0.343 0.658-0.45 1-0.24l14.166 8.676 14.166-8.676c0.343-0.21 0.79-0.102 1 0.24s0.102 0.79-0.24 1l-14.545 8.909c-0.233 0.143-0.527 0.143-0.76 0l-14.545-8.909c-0.343-0.21-0.45-0.658-0.24-1z"></path>
</symbol>
<symbol id="phone" viewBox="0 0 32 32">
  <path d="M29.333 22.56v4c0.002 0.371-0.075 0.739-0.223 1.079s-0.367 0.646-0.641 0.897c-0.274 0.251-0.597 0.442-0.948 0.561s-0.724 0.163-1.094 0.13c-4.103-0.446-8.044-1.848-11.507-4.093-3.222-2.047-5.953-4.778-8-8-2.253-3.478-3.656-7.439-4.093-11.56-0.033-0.369 0.010-0.74 0.129-1.091s0.308-0.673 0.558-0.947c0.25-0.273 0.553-0.492 0.892-0.641s0.705-0.227 1.075-0.227h4c0.647-0.006 1.274 0.223 1.765 0.645s0.811 1.008 0.902 1.649c0.169 1.28 0.482 2.537 0.933 3.747 0.179 0.477 0.218 0.996 0.112 1.495s-0.353 0.956-0.712 1.319l-1.693 1.693c1.898 3.338 4.662 6.102 8 8l1.693-1.693c0.363-0.358 0.82-0.605 1.319-0.712s1.017-0.067 1.494 0.112c1.21 0.451 2.467 0.764 3.747 0.933 0.648 0.091 1.239 0.418 1.662 0.917s0.648 1.136 0.631 1.79z"></path>
</symbol>
<symbol id="prof" viewBox="0 0 32 32">
  <path d="M27.739 21.308l-3.664 3.665c-0.626 0.626-1.368 1.095-2.177 1.387 0.107-0.277 0.166-0.578 0.166-0.892 0-1.373-1.117-2.491-2.49-2.491h-4.949l-0.934-0.952c-1.26-1.283-3.013-2.019-4.811-2.019-1.473 0-2.928 0.493-4.097 1.388l-2.068 1.583h-2.087c-0.345 0-0.625 0.28-0.625 0.625s0.28 0.625 0.625 0.625h2.299c0.137 0 0.271-0.045 0.38-0.129l2.236-1.711c0.953-0.729 2.138-1.13 3.338-1.131 1.465 0 2.893 0.599 3.919 1.645l1.118 1.139c0.117 0.12 0.278 0.187 0.446 0.187h5.212c0.684 0 1.24 0.557 1.24 1.241s-0.557 1.241-1.241 1.241l-8.208 0c-0.345 0-0.625 0.28-0.625 0.625s0.28 0.625 0.625 0.625h8.522c1.916 0 3.718-0.746 5.073-2.102l3.664-3.665c0.483-0.484 1.272-0.486 1.758-0.004 0.237 0.235 0.368 0.548 0.369 0.882s-0.129 0.648-0.365 0.884l-4.095 4.095c-1.742 1.742-4.058 2.701-6.521 2.701h-19.144c-0.345 0-0.625 0.28-0.625 0.625s0.28 0.625 0.625 0.625h19.144c2.797 0 5.427-1.089 7.405-3.067l4.095-4.095c0.473-0.473 0.733-1.102 0.731-1.771s-0.264-1.296-0.739-1.767c-0.973-0.964-2.553-0.96-3.522 0.008z"></path>
  <path d="M11.044 10.118l2.521 7.345c0.341 0.994 1.277 1.662 2.328 1.662 1.143 0 2.127-0.776 2.394-1.888l0.536-2.236c0.061-0.253 0.269-0.281 0.356-0.281s0.295 0.027 0.356 0.281l0.536 2.236c0.266 1.111 1.251 1.888 2.394 1.888 1.051 0 1.987-0.668 2.328-1.662l2.521-7.345c0-0.001 0.001-0.002 0.001-0.002 0.241-0.664 0.354-1.363 0.336-2.077-0.036-1.465-0.634-2.844-1.682-3.885s-2.433-1.627-3.898-1.652c-1.021-0.018-2.013 0.235-2.892 0.732-0.879-0.497-1.87-0.75-2.892-0.732-0.026 0-0.052 0.001-0.078 0.002-0.345 0.010-0.616 0.298-0.606 0.643s0.3 0.616 0.643 0.606c0.021-0.001 0.041-0.001 0.062-0.002 0.901-0.016 1.778 0.24 2.526 0.737-0.001-0.001 0.001 0.001 0 0 0.268 0.178 0.518 0.386 0.742 0.618 0.123 0.127 0.286 0.191 0.45 0.191 0.156 0 0.313-0.058 0.434-0.175 0.248-0.24 0.256-0.635 0.016-0.884-0.054-0.056-0.11-0.111-0.167-0.165 0.548-0.222 1.138-0.333 1.74-0.322 1.141 0.020 2.22 0.478 3.039 1.29s1.285 1.888 1.313 3.028c0.014 0.554-0.073 1.095-0.258 1.609-0.003 0.007-2.533 7.379-2.533 7.379-0.168 0.489-0.629 0.818-1.146 0.818-0.562 0-1.047-0.382-1.178-0.929l-0.536-2.236c-0.178-0.741-0.809-1.239-1.571-1.239s-1.394 0.498-1.571 1.239l-0.536 2.236c-0.131 0.547-0.616 0.929-1.178 0.929-0.517 0-0.978-0.329-1.146-0.818 0 0-2.531-7.372-2.533-7.379-0.185-0.514-0.271-1.056-0.258-1.609 0.014-0.574 0.138-1.131 0.369-1.656 0.139-0.316-0.005-0.685-0.321-0.824s-0.685 0.005-0.824 0.321c-0.297 0.675-0.456 1.391-0.474 2.128-0.018 0.714 0.095 1.412 0.336 2.077 0 0.001 0.001 0.002 0.001 0.002z"></path>
  <path d="M6.74 2.657c0.431 0 0.782 0.351 0.782 0.782 0 0.345 0.28 0.625 0.625 0.625s0.625-0.28 0.625-0.625c0-0.429 0.348-0.779 0.776-0.782h0.006c0.345 0 0.625-0.28 0.625-0.625s-0.28-0.625-0.625-0.625c-0.431 0-0.782-0.351-0.782-0.782 0-0.345-0.28-0.625-0.625-0.625s-0.625 0.28-0.625 0.625c0 0.429-0.348 0.779-0.776 0.782-0.002 0-0.004 0-0.006 0-0.345 0-0.625 0.28-0.625 0.625s0.28 0.625 0.625 0.625z"></path>
  <path d="M28.561 16.625c0.431 0 0.782 0.351 0.782 0.782 0 0.345 0.28 0.625 0.625 0.625s0.625-0.28 0.625-0.625c0-0.431 0.351-0.782 0.782-0.782 0.345 0 0.625-0.28 0.625-0.625s-0.28-0.625-0.625-0.625c-0.431 0-0.782-0.351-0.782-0.782 0-0.345-0.28-0.625-0.625-0.625s-0.625 0.28-0.625 0.625c0 0.431-0.351 0.782-0.782 0.782-0.345 0-0.625 0.28-0.625 0.625s0.28 0.625 0.625 0.625z"></path>
  <path d="M13.553 4.625c0.345 0 0.625-0.28 0.625-0.625s-0.28-0.625-0.625-0.625c-0.345 0-0.625 0.28-0.625 0.625s0.28 0.625 0.625 0.625z"></path>
</symbol>
<symbol id="fb" viewBox="0 0 32 32">
  <path d="M22.952 17.999l0.83-5.791h-5.188v-3.758c0-1.584 0.724-3.129 3.048-3.129h2.358v-4.93c0 0-2.14-0.391-4.186-0.391-4.272 0-7.064 2.774-7.064 7.795v4.414h-4.749v5.791h4.749v14h5.844v-14l4.358-0.001z"></path>
</symbol>
<symbol id="instag" viewBox="0 0 32 32">
  <path d="M9.404 0.096c1.706-0.079 2.25-0.096 6.596-0.096s4.89 0.019 6.595 0.096c1.705 0.077 2.868 0.349 3.887 0.743 1.066 0.403 2.033 1.033 2.833 1.847 0.815 0.799 1.443 1.764 1.844 2.832 0.396 1.018 0.666 2.182 0.745 3.884 0.079 1.709 0.096 2.253 0.096 6.598 0 4.346-0.019 4.89-0.096 6.596-0.077 1.702-0.349 2.865-0.745 3.884-0.401 1.068-1.031 2.035-1.844 2.835-0.8 0.815-1.767 1.443-2.833 1.844-1.018 0.396-2.182 0.666-3.884 0.745-1.708 0.079-2.252 0.096-6.598 0.096s-4.89-0.019-6.596-0.096c-1.702-0.077-2.865-0.349-3.884-0.745-1.068-0.402-2.035-1.031-2.835-1.844-0.814-0.799-1.444-1.766-1.846-2.833-0.394-1.018-0.665-2.182-0.743-3.884-0.079-1.709-0.096-2.253-0.096-6.598 0-4.346 0.019-4.89 0.096-6.595s0.349-2.868 0.743-3.887c0.403-1.068 1.033-2.034 1.847-2.833 0.799-0.814 1.765-1.444 2.832-1.846 1.018-0.394 2.183-0.665 3.885-0.743zM22.465 2.976c-1.687-0.077-2.193-0.093-6.465-0.093s-4.778 0.016-6.465 0.093c-1.561 0.071-2.407 0.332-2.972 0.551-0.746 0.291-1.28 0.636-1.84 1.196-0.531 0.516-0.939 1.145-1.196 1.84-0.22 0.564-0.48 1.411-0.551 2.972-0.077 1.687-0.093 2.193-0.093 6.465s0.016 4.778 0.093 6.465c0.071 1.561 0.332 2.407 0.551 2.972 0.256 0.694 0.665 1.324 1.196 1.84 0.516 0.531 1.146 0.94 1.84 1.196 0.564 0.22 1.411 0.48 2.972 0.551 1.687 0.077 2.192 0.093 6.465 0.093s4.778-0.016 6.465-0.093c1.561-0.071 2.407-0.332 2.972-0.551 0.746-0.291 1.28-0.636 1.84-1.196 0.531-0.516 0.94-1.146 1.196-1.84 0.22-0.564 0.48-1.411 0.551-2.972 0.077-1.687 0.093-2.193 0.093-6.465s-0.016-4.778-0.093-6.465c-0.071-1.561-0.332-2.407-0.551-2.972-0.291-0.746-0.636-1.28-1.196-1.84-0.516-0.531-1.145-0.939-1.84-1.196-0.564-0.22-1.411-0.48-2.972-0.551zM13.956 20.932c1.141 0.475 2.412 0.539 3.596 0.181s2.206-1.115 2.893-2.143c0.687-1.028 0.996-2.262 0.873-3.493s-0.668-2.38-1.543-3.252c-0.558-0.558-1.233-0.985-1.976-1.251s-1.536-0.363-2.321-0.286-1.544 0.328-2.221 0.734c-0.677 0.406-1.255 0.957-1.694 1.613s-0.726 1.401-0.842 2.182c-0.116 0.781-0.057 1.577 0.172 2.332s0.622 1.45 1.152 2.035c0.53 0.585 1.183 1.045 1.912 1.347zM10.185 10.185c0.764-0.764 1.67-1.369 2.668-1.783s2.067-0.626 3.147-0.626c1.080 0 2.149 0.213 3.147 0.626s1.904 1.019 2.668 1.783c0.764 0.764 1.369 1.67 1.783 2.668s0.626 2.067 0.626 3.147c0 1.080-0.213 2.149-0.626 3.147s-1.019 1.904-1.783 2.668c-1.542 1.542-3.634 2.409-5.815 2.409s-4.273-0.866-5.815-2.409c-1.542-1.542-2.409-3.634-2.409-5.815s0.866-4.273 2.409-5.815zM26.048 9.001c0.189-0.179 0.341-0.393 0.446-0.631s0.161-0.495 0.165-0.755c0.004-0.26-0.045-0.518-0.142-0.759s-0.243-0.46-0.427-0.644c-0.184-0.184-0.403-0.329-0.644-0.427s-0.499-0.146-0.759-0.142c-0.26 0.004-0.517 0.060-0.755 0.165s-0.453 0.256-0.631 0.446c-0.347 0.368-0.537 0.857-0.53 1.363s0.212 0.989 0.569 1.347 0.841 0.562 1.347 0.569c0.506 0.007 0.995-0.183 1.363-0.53z"></path>
</symbol>
<symbol id="telegram" viewBox="0 0 32 32">
  <path d="M31.909 5.352l-4.829 22.773c-0.364 1.607-1.314 2.007-2.665 1.25l-7.358-5.422-3.55 3.415c-0.393 0.393-0.722 0.722-1.479 0.722l0.529-7.494 13.637-12.323c0.593-0.529-0.129-0.822-0.922-0.293l-16.859 10.615-7.258-2.272c-1.579-0.493-1.607-1.579 0.329-2.336l28.388-10.937c1.314-0.493 2.465 0.293 2.036 2.3z"></path>
</symbol>
<symbol id="icon-chevron" viewBox="0 0 32 32">
  <path d="M18.43 7.192c0.446-0.446 1.17-0.446 1.616 0l8 8c0.446 0.446 0.446 1.17 0 1.616l-8 8c-0.446 0.446-1.17 0.446-1.616 0s-0.446-1.17 0-1.616l6.049-6.049h-18.765c-0.631 0-1.143-0.512-1.143-1.143s0.512-1.143 1.143-1.143h18.765l-6.049-6.049c-0.446-0.446-0.446-1.17 0-1.616z"></path>
</symbol>
</defs>
</svg>
