<svg aria-hidden="true" style="position: absolute; width: 0; height: 0; overflow: hidden;" version="1.1" xmlns="http://www.w3.org/2000/svg" xmlns:xlink="http://www.w3.org/1999/xlink">
<defs>
<symbol id="icon-chevron" viewBox="0 0 32 32">
  <path d="M18.43 7.192c0.446-0.446 1.17-0.446 1.616 0l8 8c0.446 0.446 0.446 1.17 0 1.616l-8 8c-0.446 0.446-1.17 0.446-1.616 0s-0.446-1.17 0-1.616l6.049-6.049h-18.765c-0.631 0-1.143-0.512-1.143-1.143s0.512-1.143 1.143-1.143h18.765l-6.049-6.049c-0.446-0.446-0.446-1.17 0-1.616z"></path>
</symbol>
<symbol id="icon-mail" viewBox="0 0 32 32">
  <path d="M4.364 6.545c-1.293 0-2.182 0.908-2.182 1.818v15.273c0 0.91 0.889 1.818 2.182 1.818h23.273c1.293 0 2.182-0.908 2.182-1.818v-15.273c0-0.91-0.889-1.818-2.182-1.818h-23.273zM0.727 8.364c0-1.89 1.729-3.273 3.636-3.273h23.273c1.907 0 3.636 1.383 3.636 3.273v15.273c0 1.89-1.729 3.273-3.636 3.273h-23.273c-1.907 0-3.636-1.383-3.636-3.273v-15.273z"></path>
  <path d="M0.834 9.802c0.21-0.343 0.658-0.45 1-0.24l14.166 8.676 14.166-8.676c0.343-0.21 0.79-0.102 1 0.24s0.102 0.79-0.24 1l-14.545 8.909c-0.233 0.143-0.527 0.143-0.76 0l-14.545-8.909c-0.343-0.21-0.45-0.658-0.24-1z"></path>
</symbol>
<symbol id="icon-bullet" viewBox="0 0 32 32">
  <path fill="#4f4bc1" style="fill: var(--color1, #4f4bc1)" d="M4.92 20.92c3.396 0 6.159 2.763 6.159 6.159 0 2.718 2.203 4.921 4.92 4.921s4.92-2.203 4.92-4.921c0-3.396 2.763-6.159 6.159-6.159 2.717 0 4.921-2.203 4.921-4.92s-2.203-4.92-4.921-4.92c-3.396 0-6.159-2.763-6.159-6.159 0-2.718-2.203-4.92-4.92-4.92s-4.92 2.203-4.92 4.92c0 3.396-2.763 6.159-6.159 6.159-2.717 0-4.92 2.203-4.92 4.92s2.203 4.92 4.92 4.92z"></path>
</symbol>
  <symbol id="icon-comf" viewBox="0 0 32 32">
  <path fill="#4f4bc1" style="fill: var(--color1, #4f4bc1)" d="M25.761 11.751c0-0.345-0.28-0.625-0.625-0.625s-0.625 0.28-0.625 0.625c0 0.431-0.351 0.782-0.782 0.782-0.345 0-0.625 0.28-0.625 0.625s0.28 0.625 0.625 0.625c0.431 0 0.782 0.351 0.782 0.782 0 0.345 0.28 0.625 0.625 0.625s0.625-0.28 0.625-0.625c0-0.431 0.351-0.782 0.782-0.782 0.345 0 0.625-0.28 0.625-0.625s-0.28-0.625-0.625-0.625c-0.431 0-0.782-0.351-0.782-0.782z"></path>
  <path fill="#4f4bc1" style="fill: var(--color1, #4f4bc1)" d="M6.316 3.201c0.431 0 0.782 0.351 0.782 0.782 0 0.345 0.28 0.625 0.625 0.625s0.625-0.28 0.625-0.625c0-0.431 0.351-0.782 0.782-0.782 0.345 0 0.625-0.28 0.625-0.625s-0.28-0.625-0.625-0.625c-0.431 0-0.782-0.351-0.782-0.782 0-0.345-0.28-0.625-0.625-0.625s-0.625 0.28-0.625 0.625c0 0.431-0.351 0.782-0.782 0.782-0.345 0-0.625 0.28-0.625 0.625s0.28 0.625 0.625 0.625z"></path>
  <path fill="#4f4bc1" style="fill: var(--color1, #4f4bc1)" d="M31.997 14.032c-0.034-1.368-0.397-2.727-1.051-3.931-0.165-0.303-0.544-0.416-0.848-0.251s-0.416 0.544-0.251 0.848c0.568 1.045 0.871 2.177 0.9 3.365 0.023 0.937-0.124 1.854-0.437 2.726-0.003 0.009-4.067 11.847-4.067 11.847-0.322 0.939-1.206 1.57-2.199 1.57-1.080 0-2.010-0.733-2.261-1.783l-0.861-3.592c-0.244-1.017-1.11-1.7-2.156-1.7s-1.912 0.683-2.156 1.7l-0.861 3.592c-0.252 1.050-1.182 1.783-2.261 1.783-0.993 0-1.877-0.631-2.199-1.57l-1.769-5.152c0.225-0.304 0.346-0.67 0.346-1.055 0-0.475-0.185-0.921-0.521-1.257l-0.334-0.334 2.44-2.44c0.85 0.658 1.886 1.015 2.974 1.015 0.029 0 0.058-0 0.087-0.001 1.302-0.023 2.517-0.551 3.422-1.488s1.39-2.17 1.367-3.471c-0.023-1.302-0.551-2.517-1.488-3.422s-2.17-1.391-3.471-1.367c-1.302 0.023-2.517 0.551-3.422 1.488-1.7 1.76-1.807 4.48-0.354 6.363l-2.306 2.306c0 0-1.037-3.021-1.040-3.029-0.314-0.872-0.461-1.79-0.438-2.728 0.048-1.931 0.837-3.751 2.221-5.125s3.211-2.149 5.143-2.182c1.528-0.027 3.008 0.406 4.275 1.247-0.002-0.001 0.002 0.001 0 0 0.453 0.301 0.876 0.654 1.255 1.046 0.123 0.127 0.286 0.191 0.45 0.191 0.156 0 0.313-0.058 0.434-0.175 0.249-0.24 0.256-0.635 0.016-0.884-0.215-0.223-0.443-0.435-0.68-0.634 1.075-0.54 2.264-0.812 3.487-0.791 0.911 0.016 1.801 0.196 2.645 0.535 0.32 0.129 0.684-0.026 0.813-0.346s-0.026-0.684-0.346-0.813c-0.986-0.397-2.026-0.607-3.090-0.626-1.644-0.029-3.241 0.398-4.64 1.236-1.399-0.838-2.994-1.265-4.64-1.236-2.255 0.039-4.387 0.942-6.002 2.545s-2.535 3.727-2.591 5.982c-0.027 1.099 0.147 2.175 0.518 3.199 0.001 0.002 0.001 0.003 0.002 0.005l0.642 1.872c-0.053-0.005-0.106-0.007-0.159-0.007-0.475 0-0.921 0.185-1.257 0.521l-5.095 5.095c-0.244 0.244-0.244 0.64 0 0.884s0.64 0.244 0.884 0l5.095-5.096c0.1-0.1 0.232-0.155 0.373-0.155s0.274 0.055 0.373 0.155l1.551 1.551c0.1 0.1 0.155 0.232 0.155 0.373s-0.055 0.274-0.155 0.373l-7.582 7.582c-0.244 0.244-0.244 0.64 0 0.884 0.122 0.122 0.282 0.183 0.442 0.183s0.32-0.061 0.442-0.183l6.78-6.78 1.563 4.553c0.496 1.444 1.855 2.415 3.382 2.415 1.66 0 3.090-1.127 3.477-2.742l0.861-3.592c0.131-0.547 0.572-0.742 0.94-0.742s0.809 0.195 0.94 0.742l0.861 3.592c0.387 1.614 1.817 2.742 3.477 2.742 1.527 0 2.886-0.97 3.382-2.415l4.052-11.804c0.001-0.002 0.002-0.005 0.002-0.007 0.371-1.023 0.545-2.099 0.518-3.199zM11.82 12.019c0.673-0.697 1.576-1.089 2.544-1.106 0.022-0 0.043-0.001 0.065-0.001 0.944 0 1.835 0.36 2.516 1.017 0.697 0.673 1.089 1.576 1.106 2.544s-0.344 1.885-1.017 2.581-1.576 1.089-2.544 1.106c-0.97 0.018-1.885-0.344-2.581-1.017-1.438-1.388-1.478-3.688-0.089-5.126z"></path>
  <path fill="#4f4bc1" style="fill: var(--color1, #4f4bc1)" d="M28.65 8.822c0.345 0 0.625-0.28 0.625-0.625s-0.28-0.625-0.625-0.625c-0.345 0-0.625 0.28-0.625 0.625s0.28 0.625 0.625 0.625z"></path>
</symbol>
<symbol id="icon-fb" viewBox="0 0 32 32">
  <path d="M21.561 17.599l0.664-4.633h-4.15v-3.006c0-1.267 0.58-2.503 2.439-2.503h1.887v-3.944c0 0-1.712-0.313-3.349-0.313-3.418 0-5.652 2.219-5.652 6.236v3.531h-3.799v4.633h3.799v11.2h4.676v-11.2l3.486-0.001z"></path>
</symbol>
<symbol id="icon-instag" viewBox="0 0 32 32">
  <path d="M10.723 3.277c1.365-0.063 1.8-0.077 5.277-0.077s3.912 0.015 5.276 0.077c1.364 0.062 2.295 0.279 3.109 0.595 0.853 0.322 1.627 0.826 2.267 1.478 0.652 0.639 1.154 1.412 1.476 2.266 0.316 0.815 0.533 1.745 0.596 3.107 0.063 1.367 0.077 1.803 0.077 5.278 0 3.477-0.015 3.912-0.077 5.277-0.062 1.361-0.279 2.292-0.596 3.107-0.321 0.854-0.825 1.628-1.476 2.268-0.64 0.652-1.414 1.154-2.267 1.476-0.814 0.316-1.745 0.533-3.107 0.596-1.366 0.063-1.801 0.077-5.278 0.077s-3.912-0.015-5.277-0.077c-1.361-0.062-2.292-0.279-3.107-0.596-0.854-0.321-1.628-0.825-2.268-1.476-0.651-0.639-1.155-1.413-1.477-2.267-0.315-0.814-0.532-1.745-0.595-3.107-0.063-1.367-0.077-1.803-0.077-5.278 0-3.477 0.015-3.912 0.077-5.276s0.279-2.295 0.595-3.109c0.322-0.854 0.826-1.628 1.478-2.267 0.639-0.651 1.412-1.155 2.266-1.477 0.815-0.315 1.747-0.532 3.108-0.595zM21.172 5.581c-1.35-0.062-1.755-0.074-5.172-0.074s-3.822 0.013-5.172 0.074c-1.249 0.057-1.926 0.265-2.377 0.441-0.597 0.233-1.024 0.508-1.472 0.957-0.425 0.413-0.752 0.916-0.957 1.472-0.176 0.451-0.384 1.129-0.441 2.377-0.062 1.35-0.074 1.755-0.074 5.172s0.013 3.822 0.074 5.172c0.057 1.249 0.265 1.926 0.441 2.377 0.205 0.555 0.532 1.059 0.957 1.472 0.413 0.425 0.917 0.752 1.472 0.956 0.451 0.176 1.129 0.384 2.377 0.441 1.35 0.062 1.754 0.074 5.172 0.074s3.822-0.013 5.172-0.074c1.249-0.057 1.926-0.265 2.377-0.441 0.597-0.233 1.024-0.508 1.472-0.956 0.425-0.413 0.752-0.917 0.956-1.472 0.176-0.451 0.384-1.129 0.441-2.377 0.062-1.35 0.074-1.755 0.074-5.172s-0.013-3.822-0.074-5.172c-0.057-1.249-0.265-1.926-0.441-2.377-0.233-0.597-0.508-1.024-0.956-1.472-0.413-0.425-0.916-0.751-1.472-0.957-0.452-0.176-1.129-0.384-2.377-0.441zM14.365 19.946c0.913 0.38 1.93 0.431 2.876 0.145s1.765-0.892 2.314-1.715c0.549-0.822 0.796-1.81 0.699-2.794s-0.534-1.904-1.235-2.602c-0.447-0.446-0.986-0.788-1.581-1.001s-1.229-0.291-1.857-0.229-1.235 0.262-1.777 0.587c-0.541 0.325-1.004 0.765-1.355 1.29s-0.581 1.121-0.674 1.746c-0.093 0.624-0.046 1.262 0.137 1.866s0.498 1.16 0.922 1.628c0.424 0.468 0.946 0.836 1.529 1.078zM11.348 11.348c0.611-0.611 1.336-1.095 2.135-1.426s1.654-0.501 2.518-0.501c0.864 0 1.72 0.17 2.518 0.501s1.524 0.815 2.134 1.426c0.611 0.611 1.095 1.336 1.426 2.135s0.501 1.654 0.501 2.518c0 0.864-0.17 1.72-0.501 2.518s-0.815 1.524-1.426 2.134c-1.234 1.234-2.907 1.927-4.652 1.927s-3.418-0.693-4.652-1.927c-1.234-1.234-1.927-2.907-1.927-4.652s0.693-3.418 1.927-4.652zM24.038 10.401c0.151-0.143 0.273-0.315 0.356-0.505s0.129-0.396 0.132-0.604c0.003-0.208-0.036-0.415-0.114-0.608s-0.194-0.368-0.342-0.515-0.322-0.263-0.515-0.342c-0.193-0.078-0.399-0.117-0.608-0.114s-0.413 0.048-0.604 0.132c-0.191 0.084-0.362 0.205-0.505 0.356-0.278 0.294-0.43 0.686-0.424 1.090s0.169 0.791 0.455 1.077 0.673 0.45 1.077 0.456c0.405 0.006 0.796-0.146 1.090-0.424z"></path>
</symbol>
<symbol id="icon-mail1" viewBox="0 0 38 32">
  <path fill="none" stroke="#fff" style="stroke: var(--color2, #fff)" stroke-linejoin="round" stroke-linecap="round" stroke-miterlimit="4" stroke-width="1.6" d="M6.325 5.334h25.301c1.74 0 3.163 1.2 3.163 2.667v16c0 1.467-1.423 2.667-3.163 2.667h-25.301c-1.739 0-3.163-1.2-3.163-2.667v-16c0-1.467 1.423-2.667 3.163-2.667z"></path>
  <path fill="none" stroke="#fff" style="stroke: var(--color2, #fff)" stroke-linejoin="round" stroke-linecap="round" stroke-miterlimit="4" stroke-width="1.6" d="M34.789 8l-15.813 9.333-15.813-9.333"></path>
</symbol>
<symbol id="icon-phone" viewBox="0 0 32 32">
  <path fill="#f497ac" style="fill: var(--color4, #f497ac)" d="M29.333 22.56v4c0.002 0.371-0.075 0.739-0.223 1.079s-0.367 0.646-0.641 0.897c-0.274 0.251-0.597 0.442-0.948 0.561s-0.724 0.163-1.094 0.13c-4.103-0.446-8.044-1.848-11.507-4.093-3.222-2.047-5.953-4.778-8-8-2.253-3.478-3.656-7.439-4.093-11.56-0.033-0.369 0.010-0.74 0.129-1.091s0.308-0.673 0.558-0.947c0.25-0.273 0.553-0.492 0.892-0.641s0.705-0.227 1.075-0.227h4c0.647-0.006 1.274 0.223 1.765 0.645s0.811 1.008 0.902 1.649c0.169 1.28 0.482 2.537 0.933 3.747 0.179 0.477 0.218 0.996 0.112 1.495s-0.353 0.956-0.712 1.319l-1.693 1.693c1.898 3.338 4.662 6.102 8 8l1.693-1.693c0.363-0.358 0.82-0.605 1.319-0.712s1.017-0.067 1.494 0.112c1.21 0.451 2.467 0.764 3.747 0.933 0.648 0.091 1.239 0.418 1.662 0.917s0.648 1.136 0.631 1.79z"></path>
</symbol>
<symbol id="icon-prof" viewBox="0 0 32 32">
  <path fill="#4f4bc1" style="fill: var(--color1, #4f4bc1)" d="M27.739 21.308l-3.664 3.665c-0.626 0.626-1.368 1.095-2.177 1.387 0.107-0.277 0.166-0.578 0.166-0.892 0-1.373-1.117-2.491-2.49-2.491h-4.949l-0.934-0.952c-1.26-1.283-3.013-2.019-4.811-2.019-1.473 0-2.928 0.493-4.097 1.388l-2.068 1.583h-2.087c-0.345 0-0.625 0.28-0.625 0.625s0.28 0.625 0.625 0.625h2.299c0.137 0 0.271-0.045 0.38-0.129l2.236-1.711c0.953-0.729 2.138-1.13 3.338-1.131 1.465 0 2.893 0.599 3.919 1.645l1.118 1.139c0.117 0.12 0.278 0.187 0.446 0.187h5.212c0.684 0 1.24 0.557 1.24 1.241s-0.557 1.241-1.241 1.241l-8.208 0c-0.345 0-0.625 0.28-0.625 0.625s0.28 0.625 0.625 0.625h8.522c1.916 0 3.718-0.746 5.073-2.102l3.664-3.665c0.483-0.484 1.272-0.486 1.758-0.004 0.237 0.235 0.368 0.548 0.369 0.882s-0.129 0.648-0.365 0.884l-4.095 4.095c-1.742 1.742-4.058 2.701-6.521 2.701h-19.144c-0.345 0-0.625 0.28-0.625 0.625s0.28 0.625 0.625 0.625h19.144c2.797 0 5.427-1.089 7.405-3.067l4.095-4.095c0.473-0.473 0.733-1.102 0.731-1.771s-0.264-1.296-0.739-1.767c-0.973-0.964-2.553-0.96-3.522 0.008z"></path>
  <path fill="#4f4bc1" style="fill: var(--color1, #4f4bc1)" d="M11.044 10.118l2.521 7.345c0.341 0.994 1.277 1.662 2.328 1.662 1.143 0 2.127-0.776 2.394-1.888l0.536-2.236c0.061-0.253 0.269-0.281 0.356-0.281s0.295 0.027 0.356 0.281l0.536 2.236c0.266 1.111 1.251 1.888 2.394 1.888 1.051 0 1.987-0.668 2.328-1.662l2.521-7.345c0-0.001 0.001-0.002 0.001-0.002 0.241-0.664 0.354-1.363 0.336-2.077-0.036-1.465-0.634-2.844-1.682-3.885s-2.433-1.627-3.898-1.652c-1.021-0.018-2.013 0.235-2.892 0.732-0.879-0.497-1.87-0.75-2.892-0.732-0.026 0-0.052 0.001-0.078 0.002-0.345 0.010-0.616 0.298-0.606 0.643s0.3 0.616 0.643 0.606c0.021-0.001 0.041-0.001 0.062-0.002 0.901-0.016 1.778 0.24 2.526 0.737-0.001-0.001 0.001 0.001 0 0 0.268 0.178 0.518 0.386 0.742 0.618 0.123 0.127 0.286 0.191 0.45 0.191 0.156 0 0.313-0.058 0.434-0.175 0.248-0.24 0.256-0.635 0.016-0.884-0.054-0.056-0.11-0.111-0.167-0.165 0.548-0.222 1.138-0.333 1.74-0.322 1.141 0.020 2.22 0.478 3.039 1.29s1.285 1.888 1.313 3.028c0.014 0.554-0.073 1.095-0.258 1.609-0.003 0.007-2.533 7.379-2.533 7.379-0.168 0.489-0.629 0.818-1.146 0.818-0.562 0-1.047-0.382-1.178-0.929l-0.536-2.236c-0.178-0.741-0.809-1.239-1.571-1.239s-1.394 0.498-1.571 1.239l-0.536 2.236c-0.131 0.547-0.616 0.929-1.178 0.929-0.517 0-0.978-0.329-1.146-0.818 0 0-2.531-7.372-2.533-7.379-0.185-0.514-0.271-1.056-0.258-1.609 0.014-0.574 0.138-1.131 0.369-1.656 0.139-0.316-0.005-0.685-0.321-0.824s-0.685 0.005-0.824 0.321c-0.297 0.675-0.456 1.391-0.474 2.128-0.018 0.714 0.095 1.412 0.336 2.077 0 0.001 0.001 0.002 0.001 0.002z"></path>
  <path fill="#4f4bc1" style="fill: var(--color1, #4f4bc1)" d="M6.74 2.657c0.431 0 0.782 0.351 0.782 0.782 0 0.345 0.28 0.625 0.625 0.625s0.625-0.28 0.625-0.625c0-0.429 0.348-0.779 0.776-0.782h0.006c0.345 0 0.625-0.28 0.625-0.625s-0.28-0.625-0.625-0.625c-0.431 0-0.782-0.351-0.782-0.782 0-0.345-0.28-0.625-0.625-0.625s-0.625 0.28-0.625 0.625c0 0.429-0.348 0.779-0.776 0.782-0.002 0-0.004 0-0.006 0-0.345 0-0.625 0.28-0.625 0.625s0.28 0.625 0.625 0.625z"></path>
  <path fill="#4f4bc1" style="fill: var(--color1, #4f4bc1)" d="M28.561 16.625c0.431 0 0.782 0.351 0.782 0.782 0 0.345 0.28 0.625 0.625 0.625s0.625-0.28 0.625-0.625c0-0.431 0.351-0.782 0.782-0.782 0.345 0 0.625-0.28 0.625-0.625s-0.28-0.625-0.625-0.625c-0.431 0-0.782-0.351-0.782-0.782 0-0.345-0.28-0.625-0.625-0.625s-0.625 0.28-0.625 0.625c0 0.431-0.351 0.782-0.782 0.782-0.345 0-0.625 0.28-0.625 0.625s0.28 0.625 0.625 0.625z"></path>
  <path fill="#4f4bc1" style="fill: var(--color1, #4f4bc1)" d="M13.553 4.625c0.345 0 0.625-0.28 0.625-0.625s-0.28-0.625-0.625-0.625c-0.345 0-0.625 0.28-0.625 0.625s0.28 0.625 0.625 0.625z"></path>
</symbol>
<symbol id="icon-telegram" viewBox="0 0 32 32">
  <path d="M28.727 7.554l-3.863 18.219c-0.292 1.286-1.052 1.606-2.132 1l-5.886-4.337-2.84 2.732c-0.314 0.314-0.577 0.577-1.183 0.577l0.423-5.995 10.91-9.858c0.474-0.423-0.103-0.657-0.737-0.234l-13.487 8.492-5.806-1.817c-1.263-0.394-1.286-1.263 0.263-1.869l22.711-8.749c1.052-0.394 1.972 0.234 1.629 1.84z"></path>
</symbol>
<symbol id="icon-treat" viewBox="0 0 30 32">
  <path fill="#4f4bc1" style="fill: var(--color1, #4f4bc1)" d="M0.467 12.066c0.19 0 0.365-0.126 0.435-0.311 0.072-0.191 0.021-0.416-0.126-0.551-0.149-0.137-0.371-0.16-0.542-0.056s-0.264 0.318-0.225 0.523c0.043 0.227 0.238 0.396 0.459 0.396z"></path>
  <path fill="#4f4bc1" style="fill: var(--color1, #4f4bc1)" d="M23.993 12.181c0.073-1.056-0.041-2.056-0.339-2.975-0.756-2.327-2.312-4.043-4.271-4.708-2.722-0.925-5.049 0.47-6.564 1.6-0.482 0.359-1.129 0.359-1.611 0-1.514-1.13-3.842-2.525-6.564-1.6-1.775 0.603-3.207 2.046-4.034 4.062-0.128 0.313 0.007 0.678 0.303 0.814s0.639-0.008 0.768-0.321c0.691-1.685 1.869-2.884 3.32-3.377 2.181-0.741 4.145 0.408 5.456 1.375 0.452 0.863 1.182 1.505 2.072 1.816 0.381 0.133 0.773 0.2 1.163 0.2 0.569 0 1.135-0.141 1.658-0.42 0.288-0.154 0.404-0.525 0.259-0.83s-0.496-0.428-0.784-0.274c-0.604 0.322-1.289 0.375-1.93 0.151-0.118-0.041-0.232-0.091-0.341-0.149 0.331-0.075 0.65-0.22 0.938-0.434 1.31-0.977 3.309-2.189 5.535-1.433 1.604 0.545 2.889 1.978 3.523 3.933 0.239 0.736 0.334 1.542 0.284 2.399-0.153-0.010-0.307-0.015-0.462-0.015-4.152 0-7.53 3.606-7.53 8.038 0 2.183 0.819 4.165 2.147 5.615-0.111 0.248-0.22 0.495-0.328 0.737-0.25 0.563-0.748 0.714-1.13 0.667s-0.835-0.314-0.957-0.923l-1.374-6.863c-0.002-0.011-0.005-0.021-0.007-0.032-0.145-0.572-0.618-0.957-1.177-0.957s-1.032 0.384-1.177 0.957c-0.003 0.011-0.005 0.021-0.007 0.032l-1.374 6.863c-0.122 0.609-0.574 0.876-0.957 0.923s-0.88-0.104-1.13-0.667c-2.177-4.907-3.55-7.814-4.080-8.639-0.758-1.18-1.324-2.371-1.682-3.538-0.099-0.325-0.429-0.503-0.735-0.397s-0.475 0.454-0.375 0.779c0.392 1.279 1.006 2.575 1.827 3.853 0.482 0.75 1.898 3.758 3.988 8.47 0.383 0.864 1.168 1.386 2.047 1.386 0.091 0 0.182-0.006 0.275-0.017 0.988-0.121 1.759-0.865 1.965-1.895l1.37-6.842c0.005-0.017 0.014-0.029 0.047-0.029s0.041 0.012 0.047 0.029l1.37 6.842c0.206 1.030 0.978 1.774 1.965 1.895s1.898-0.417 2.321-1.37c0.061-0.137 0.122-0.275 0.184-0.414 1.251 0.989 2.798 1.574 4.471 1.574 4.152 0 7.53-3.606 7.53-8.038 0-3.838-2.533-7.056-5.909-7.85zM22.371 26.831c-3.508 0-6.363-3.051-6.363-6.801s2.854-6.801 6.363-6.801 6.363 3.051 6.363 6.801c0 3.75-2.854 6.801-6.363 6.801z"></path>
  <path fill="#4f4bc1" style="fill: var(--color1, #4f4bc1)" d="M24.907 17.778h-0.778v-0.873c0-0.77-0.564-1.397-1.257-1.397h-1.361c-0.693 0-1.257 0.627-1.257 1.397v0.873h-0.778c-0.693 0-1.257 0.627-1.257 1.397v1.519c0 0.77 0.564 1.397 1.257 1.397h0.778v0.873c0 0.77 0.564 1.397 1.257 1.397h1.361c0.693 0 1.257-0.627 1.257-1.397v-0.873h0.778c0.693 0 1.257-0.627 1.257-1.397v-1.519c0-0.77-0.564-1.397-1.257-1.397zM25.028 20.694c0 0.077-0.054 0.14-0.121 0.14h-1.346c-0.314 0-0.568 0.281-0.568 0.629v1.502c0 0.077-0.054 0.14-0.121 0.14h-1.361c-0.066 0-0.121-0.063-0.121-0.14v-1.502c0-0.347-0.254-0.629-0.568-0.629h-1.346c-0.066 0-0.12-0.063-0.12-0.14v-1.519c0-0.077 0.054-0.139 0.12-0.139h1.346c0.314 0 0.568-0.282 0.568-0.629v-1.502c0-0.077 0.054-0.14 0.121-0.14h1.361c0.067 0 0.121 0.063 0.121 0.14v1.502c0 0.347 0.254 0.629 0.568 0.629h1.346c0.066 0 0.121 0.063 0.121 0.139v1.519z"></path>
</symbol>
<symbol id="icon-close" viewBox="0 0 32 32">
  <path d="M14.586 16l-6.293-6.293 1.414-1.414 6.293 6.293 6.293-6.293 1.414 1.414-6.293 6.293 6.293 6.293-1.414 1.414-6.293-6.293-6.293 6.293-1.414-1.414 6.293-6.293z"></path>
</symbol>
</defs>
</svg>
