<?xml version="1.0" standalone="no"?>
<!DOCTYPE svg PUBLIC "-//W3C//DTD SVG 20010904//EN"
 "http://www.w3.org/TR/2001/REC-SVG-20010904/DTD/svg10.dtd">
<svg version="1.0" xmlns="http://www.w3.org/2000/svg"
 width="624.000000pt" height="624.000000pt" viewBox="0 0 624.000000 624.000000"
 preserveAspectRatio="xMidYMid meet">
<metadata>
Created by potrace 1.14, written by Peter Selinger 2001-2017
</metadata>
<g transform="translate(0.000000,624.000000) scale(0.100000,-0.100000)"
fill="#000000" stroke="none">
<path d="M4288 6235 c-1 -2 -50 -6 -108 -9 -58 -4 -123 -9 -145 -11 -50 -6
-170 -17 -210 -20 -59 -4 -244 -29 -300 -39 -16 -3 -43 -8 -60 -11 -41 -6
-162 -32 -205 -44 -19 -5 -62 -16 -95 -25 -73 -20 -428 -136 -435 -143 -4 -4
56 2 130 14 14 2 41 5 60 7 19 3 51 7 70 10 19 3 58 8 85 11 28 3 72 8 100 11
61 7 99 11 195 19 41 3 89 8 105 10 162 23 688 23 870 0 17 -2 55 -7 85 -11
30 -3 64 -8 75 -10 11 -2 34 -5 52 -8 18 -2 40 -7 50 -10 10 -3 29 -7 43 -10
56 -9 276 -67 320 -83 8 -3 20 -7 25 -8 6 -2 42 -15 80 -30 406 -161 648 -423
702 -760 15 -96 8 -337 -12 -425 -3 -14 -8 -36 -11 -50 -30 -159 -178 -526
-273 -680 -5 -8 -33 -55 -62 -105 -96 -165 -336 -515 -360 -523 -5 -2 -9 -9
-9 -15 0 -7 -12 -25 -28 -42 -15 -16 -39 -46 -53 -65 -15 -19 -36 -45 -48 -57
-12 -12 -21 -25 -21 -28 0 -3 -8 -13 -17 -23 -10 -10 -36 -40 -57 -66 -21 -26
-51 -60 -65 -75 -14 -16 -51 -57 -81 -92 -109 -125 -482 -507 -594 -609 l-28
-25 6 25 c3 14 8 57 11 95 8 108 15 143 47 235 34 97 91 208 178 346 33 52 60
99 60 104 0 4 3 10 8 12 9 4 72 107 72 118 0 5 3 10 8 12 9 4 121 228 127 254
2 11 17 55 33 99 15 44 28 82 29 85 1 3 4 23 8 45 4 22 9 49 12 60 14 74 17
119 17 275 0 188 -5 236 -34 361 -6 26 -13 53 -14 60 -2 8 -8 27 -14 42 -7 16
-12 31 -12 35 0 15 -74 162 -82 162 -4 0 -8 5 -8 11 0 7 -20 36 -45 65 -112
131 -261 202 -510 242 -58 10 -400 8 -460 -2 -64 -11 -197 -35 -230 -41 -16
-3 -73 -17 -125 -31 -52 -14 -103 -27 -112 -29 -9 -2 -25 -8 -35 -13 -10 -6
-22 -10 -26 -10 -16 1 -237 -85 -237 -93 0 -4 21 0 48 8 26 8 61 18 78 23 18
4 37 10 43 14 6 4 11 3 11 -2 0 -8 -36 -24 -43 -19 -2 2 -98 -64 -107 -73 -20
-20 -115 -94 -165 -126 -101 -67 -188 -99 -329 -119 -47 -6 -193 -8 -221 -1
-12 2 -48 7 -80 11 -33 4 -71 9 -85 11 -45 8 -203 17 -305 17 -321 1 -530 -85
-668 -274 -38 -53 -99 -176 -113 -229 -2 -8 -8 -33 -14 -55 -6 -22 -13 -74
-15 -115 -2 -41 -5 -77 -5 -80 -2 -5 -1 -31 5 -140 4 -82 44 -244 82 -330 28
-65 87 -185 92 -190 3 -3 17 -25 30 -50 32 -58 102 -164 113 -168 4 -2 8 -9 8
-15 0 -7 22 -40 48 -74 26 -34 72 -97 102 -140 30 -43 57 -80 61 -83 19 -16
112 -167 143 -231 43 -92 60 -166 53 -228 -3 -25 -29 -102 -57 -171 -28 -69
-53 -134 -55 -145 -3 -11 -14 -51 -25 -90 -48 -168 -57 -239 -54 -413 1 -92 4
-176 7 -187 2 -11 8 -47 12 -80 3 -33 13 -89 20 -125 7 -36 16 -82 19 -104 4
-21 8 -41 10 -45 3 -3 7 -27 11 -51 3 -25 10 -61 15 -80 5 -19 16 -65 24 -101
9 -36 18 -73 22 -82 6 -18 -29 -36 -153 -80 -116 -42 -202 -62 -308 -73 -33
-3 -61 -7 -63 -9 -2 -2 -17 1 -33 5 -16 5 -29 5 -29 1 0 -17 -156 21 -220 52
-109 54 -207 168 -255 297 -9 25 -21 54 -26 65 -8 18 -24 79 -34 130 -3 20
-10 62 -22 140 -9 63 -12 515 -4 563 5 23 4 42 0 42 -5 0 -9 -2 -9 -4 0 -1
-11 -48 -24 -102 -13 -54 -29 -133 -36 -174 -6 -41 -14 -86 -17 -100 -12 -62
-10 -368 3 -445 44 -245 154 -422 323 -519 140 -81 251 -104 468 -99 146 3
228 8 228 13 0 1 14 3 30 5 17 2 92 18 168 36 109 26 140 30 146 20 12 -19 88
-26 118 -10 14 7 38 32 54 55 22 33 40 45 81 59 29 9 67 23 83 30 17 8 59 26
95 40 170 69 535 254 700 355 8 5 47 28 85 51 39 24 127 80 198 126 106 69
126 79 122 60 -2 -12 -7 -40 -10 -61 -3 -21 -7 -48 -10 -60 -2 -12 -7 -37 -9
-56 -6 -40 -72 -306 -80 -318 -2 -4 -7 -27 -11 -52 -4 -25 -9 -48 -12 -52 -2
-5 -7 -30 -10 -56 -21 -190 27 -274 153 -268 80 5 149 50 279 181 165 166 286
355 393 615 32 80 80 217 87 255 2 6 12 44 23 85 11 41 30 120 42 175 28 129
29 133 35 175 3 20 7 47 10 60 3 13 7 40 10 60 3 20 7 45 9 56 2 11 98 114
212 229 207 208 268 272 394 414 36 41 70 79 75 85 18 20 129 152 165 196 19
23 42 50 50 60 39 48 47 58 75 95 17 22 35 45 40 52 20 24 31 39 85 113 30 41
57 77 60 80 3 3 25 34 50 70 24 36 48 70 53 75 29 35 267 410 267 422 0 3 8
17 18 31 40 58 138 245 219 417 88 189 187 461 209 574 3 14 7 27 9 31 2 4 7
29 11 56 3 27 8 52 10 55 23 38 23 390 1 499 -30 150 -82 291 -135 370 -9 14
-17 27 -17 30 -2 29 -242 290 -267 290 -3 0 -13 6 -21 14 -42 42 -218 138
-337 184 -75 29 -239 77 -295 87 -16 2 -39 7 -50 9 -11 2 -43 7 -70 10 -28 4
-64 10 -80 12 -34 6 -451 14 -457 9z m-313 -1355 c3 -5 -1 -10 -9 -10 -8 0
-18 5 -21 10 -3 6 1 10 9 10 8 0 18 -4 21 -10z m74 -15 c9 -2 17 -4 19 -5 1
-2 5 -3 10 -5 4 -1 20 -7 35 -13 16 -7 30 -12 32 -12 2 0 32 -17 66 -37 78
-47 156 -122 201 -194 38 -61 63 -113 49 -105 -4 3 -14 19 -21 36 -7 16 -16
30 -21 30 -5 0 -9 6 -9 13 -1 22 -117 135 -192 184 -72 48 -186 103 -214 103
-8 0 -14 5 -14 11 0 6 9 8 21 4 12 -4 29 -9 38 -10z m291 -1569 c0 -2 -8 -10
-17 -17 -16 -13 -17 -12 -4 4 13 16 21 21 21 13z m-56 -88 c-46 -71 -198 -283
-206 -286 -5 -2 -8 -8 -8 -14 0 -5 -11 -24 -24 -41 -33 -43 -118 -209 -141
-274 -11 -29 -22 -53 -27 -53 -4 0 -3 11 2 25 5 14 8 25 6 25 -6 0 19 63 47
117 37 72 204 322 246 370 6 7 11 17 11 22 0 6 6 14 13 18 7 4 32 39 56 76 24
37 46 66 48 63 3 -2 -8 -24 -23 -48z m-1519 -980 c-11 -6 -27 -16 -35 -22 -9
-6 -5 -1 8 12 13 12 28 22 35 22 7 0 3 -6 -8 -12z m68 -12 c9 -7 17 -19 17
-26 0 -7 17 -33 39 -59 76 -91 216 -419 236 -553 11 -72 14 -144 6 -156 -6
-10 -114 -92 -250 -190 -12 -9 -42 -31 -65 -48 -22 -16 -97 -68 -166 -115 -69
-46 -126 -87 -128 -91 -2 -5 -8 -8 -14 -8 -5 0 -24 -11 -42 -25 -18 -14 -38
-25 -44 -25 -6 0 -12 -3 -14 -8 -5 -12 -388 -248 -448 -275 -8 -4 -28 -16 -45
-26 -40 -26 -58 -26 -50 -2 3 11 8 29 10 40 14 72 122 438 148 501 5 14 11 30
13 35 20 75 172 394 224 471 16 25 30 47 30 50 0 7 129 178 165 219 70 80 136
143 220 210 33 26 62 51 65 55 5 8 62 39 70 39 3 0 13 -6 23 -13z m-412 -269
c-10 -9 -11 -8 -5 6 3 10 9 15 12 12 3 -3 0 -11 -7 -18z m-756 -107 c-3 -5 -8
-20 -10 -32 -5 -28 -75 -199 -86 -212 -10 -12 22 93 50 163 26 64 40 91 47 91
3 0 2 -4 -1 -10z m1560 -862 c-3 -51 -16 -167 -20 -188 -1 -8 -6 -40 -11 -70
-8 -57 -10 -68 -13 -72 -2 -2 -4 -16 -6 -33 -2 -16 -9 -50 -14 -75 -6 -25 -13
-60 -16 -79 -3 -19 -7 -37 -9 -40 -2 -3 -7 -22 -10 -41 -19 -104 -25 -115 -20
-35 2 44 9 107 14 140 5 33 12 78 15 100 3 22 11 65 16 95 6 30 12 69 14 85 3
17 7 46 10 65 3 19 8 53 11 75 14 103 18 115 34 115 5 0 7 -19 5 -42z m-1434
-185 c-12 -20 -14 -14 -5 12 4 9 9 14 11 11 3 -2 0 -13 -6 -23z m-20 -46 c-10
-9 -11 -8 -5 6 3 10 9 15 12 12 3 -3 0 -11 -7 -18z m-24 -82 c-6 -19 -14 -35
-19 -35 -5 0 -7 4 -4 9 3 4 10 20 15 35 15 38 21 32 8 -9z m-25 -77 c-8 -8 -9
-4 -5 13 4 13 8 18 11 10 2 -7 -1 -18 -6 -23z m-11 -41 c-10 -9 -11 -8 -5 6 3
10 9 15 12 12 3 -3 0 -11 -7 -18z"/>
<path d="M3539 5925 c-2 -2 -38 -6 -79 -10 -41 -3 -86 -8 -100 -10 -14 -2 -45
-6 -70 -10 -25 -4 -58 -9 -75 -11 -16 -2 -54 -9 -84 -15 -30 -6 -64 -12 -75
-14 -12 -1 -34 -5 -51 -9 -16 -3 -41 -8 -55 -11 -25 -5 -56 -11 -95 -20 -11
-2 -50 -12 -87 -21 l-67 -17 2 -131 c2 -118 -1 -141 -27 -231 -29 -99 -131
-362 -179 -462 -14 -29 -22 -54 -19 -56 4 -2 31 -3 61 -3 37 1 56 6 62 16 22
43 39 85 39 100 0 9 3 20 8 24 4 4 15 26 25 49 l17 42 -4 -35 c-5 -36 -10 -64
-26 -135 -5 -22 -7 -41 -4 -44 6 -7 83 21 92 33 5 6 21 47 37 91 15 44 32 91
38 105 5 14 12 33 14 43 2 10 9 28 16 40 10 19 12 1 15 -110 2 -122 4 -132 20
-124 9 6 39 20 65 32 59 28 63 33 71 89 4 25 9 57 12 73 2 15 6 39 8 55 11 72
17 110 21 132 3 14 8 45 11 70 3 25 8 47 10 49 2 2 4 -89 4 -202 l0 -207 68
34 c111 57 102 36 103 240 0 98 1 177 3 175 2 -2 7 -20 11 -39 3 -19 8 -44 10
-55 2 -11 9 -45 15 -75 6 -30 13 -64 15 -75 13 -69 15 -71 52 -51 l29 15 0
126 c-1 75 3 129 9 133 5 3 7 2 4 -2 -4 -4 0 -33 8 -64 18 -67 18 -66 28 -117
4 -22 9 -43 12 -47 4 -7 72 18 87 32 7 7 19 153 18 234 0 46 15 9 22 -54 3
-30 9 -68 12 -85 4 -16 7 -38 8 -47 3 -28 10 -29 60 -14 52 16 53 16 64 16 5
0 10 19 11 43 2 23 4 60 6 82 2 22 4 54 5 70 l2 30 8 -35 c5 -19 12 -62 15
-95 9 -74 11 -78 44 -70 14 4 34 9 44 11 49 9 53 14 54 57 1 23 3 73 4 111 l3
69 29 -64 c62 -138 52 -127 115 -125 39 1 56 6 54 14 -1 7 -5 29 -7 50 -3 20
-8 48 -11 62 -3 16 6 7 26 -26 37 -63 48 -73 86 -75 55 -3 56 0 15 47 -22 26
-52 70 -65 98 -31 67 -39 86 -50 131 -3 11 -12 46 -20 78 -9 32 -16 60 -16 62
0 5 -53 19 -110 31 -37 7 -425 16 -431 9z"/>
</g>
</svg>
