<svg width="12" height="12" viewBox="0 0 12 12" fill="none" xmlns="http://www.w3.org/2000/svg">
<path d="M1.84516 7.84507C3.11869 7.84507 4.15493 8.88112 4.15493 10.1548C4.15493 11.1739 4.98119 12 6.00009 12C7.01899 12 7.84525 11.1739 7.84525 10.1548C7.84525 8.88131 8.88131 7.84507 10.1548 7.84507C11.1737 7.84507 12 7.01899 12 5.99991C12 4.98083 11.1737 4.15475 10.1548 4.15475C8.88149 4.15475 7.84525 3.11869 7.84525 1.84516C7.84525 0.826078 7.01899 0 6.00009 0C4.98119 0 4.15493 0.826078 4.15493 1.84516C4.15493 3.11869 3.11887 4.15475 1.84516 4.15475C0.826262 4.15475 0 4.98083 0 5.99991C0 7.01899 0.826078 7.84507 1.84516 7.84507Z" fill="#4F4BC1"/>
</svg>
