<svg width="40" height="40" viewBox="0 0 40 40" fill="none" xmlns="http://www.w3.org/2000/svg">
<path fill-rule="evenodd" clip-rule="evenodd" d="M4 10C4 9.44772 4.44772 9 5 9H35C35.5523 9 36 9.44772 36 10C36 10.5523 35.5523 11 35 11H5C4.44772 11 4 10.5523 4 10Z" fill="#181763"/>
<path fill-rule="evenodd" clip-rule="evenodd" d="M14 20C14 19.4477 14.4477 19 15 19H35C35.5523 19 36 19.4477 36 20C36 20.5523 35.5523 21 35 21H15C14.4477 21 14 20.5523 14 20Z" fill="#181763"/>
<path fill-rule="evenodd" clip-rule="evenodd" d="M10.6667 30C10.6667 29.4477 11.1144 29 11.6667 29H35C35.5523 29 36 29.4477 36 30C36 30.5523 35.5523 31 35 31H11.6667C11.1144 31 10.6667 30.5523 10.6667 30Z" fill="#181763"/>
</svg>
