<svg width="48" height="48" viewBox="0 0 48 48" fill="none" xmlns="http://www.w3.org/2000/svg">
<g clip-path="url(#clip0_202_297)">
<path d="M38.6422 17.6272C38.6422 17.1095 38.2224 16.6898 37.7048 16.6898C37.1871 16.6898 36.7673 17.1095 36.7673 17.6272C36.7673 18.2743 36.2409 18.8008 35.5937 18.8008C35.0761 18.8008 34.6562 19.2205 34.6562 19.7383C34.6562 20.256 35.0761 20.6758 35.5937 20.6758C36.2408 20.6758 36.7673 21.2022 36.7673 21.8492C36.7673 22.367 37.1871 22.7867 37.7048 22.7867C38.2224 22.7867 38.6422 22.367 38.6422 21.8492C38.6422 21.2022 39.1686 20.6758 39.8158 20.6758C40.3335 20.6758 40.7533 20.256 40.7533 19.7383C40.7533 19.2205 40.3335 18.8008 39.8158 18.8008C39.1686 18.8008 38.6422 18.2744 38.6422 17.6272Z" fill="#4F4BC1"/>
<path d="M9.47459 4.8017C10.1216 4.8017 10.6481 5.3281 10.6481 5.97525C10.6481 6.49302 11.0679 6.91273 11.5856 6.91273C12.1033 6.91273 12.5231 6.49302 12.5231 5.97525C12.5231 5.3282 13.0495 4.8017 13.6966 4.8017C14.2142 4.8017 14.634 4.38199 14.634 3.86422C14.634 3.34645 14.2142 2.92673 13.6966 2.92673C13.0496 2.92673 12.5231 2.40033 12.5231 1.75328C12.5231 1.23551 12.1033 0.815796 11.5856 0.815796C11.0679 0.815796 10.6481 1.23551 10.6481 1.75328C10.6481 2.40033 10.1217 2.92673 9.47459 2.92673C8.95692 2.92673 8.53711 3.34645 8.53711 3.86422C8.53711 4.38199 8.95682 4.8017 9.47459 4.8017Z" fill="#4F4BC1"/>
<path d="M47.9959 21.0483C47.9453 18.9965 47.4001 16.9577 46.4189 15.1523C46.1716 14.6972 45.6024 14.529 45.1476 14.7762C44.6926 15.0234 44.5243 15.5925 44.7715 16.0476C45.6234 17.6152 46.0776 19.3132 46.1214 21.0945C46.156 22.5006 45.9354 23.8761 45.4654 25.1836C45.4603 25.1964 39.3647 42.9537 39.3647 42.9537C38.8811 44.3626 37.5552 45.3093 36.0655 45.3093C34.446 45.3093 33.0511 44.2094 32.6734 42.6344L31.3817 37.2465C31.016 35.7211 29.7164 34.6963 28.148 34.6963C26.5795 34.6963 25.2798 35.7212 24.9141 37.2465L23.6224 42.6344C23.2448 44.2094 21.85 45.3093 20.2303 45.3093C18.7405 45.3093 17.4147 44.3626 16.9311 42.9537L14.2783 35.2256C14.6153 34.7701 14.7975 34.2209 14.7975 33.6437C14.7975 32.9313 14.5201 32.2617 14.0164 31.7579L13.5157 31.2572L17.1762 27.5967C18.4518 28.5843 20.0049 29.1188 21.6372 29.1188C21.6807 29.1188 21.7247 29.1185 21.7682 29.1177C23.7211 29.0836 25.5438 28.291 26.9007 26.886C28.2575 25.481 28.9859 23.6317 28.9519 21.6788C28.9177 19.7258 28.1252 17.9031 26.7201 16.5463C25.3152 15.1895 23.4648 14.4601 21.5129 14.4951C19.56 14.5292 17.7373 15.3218 16.3805 16.7268C13.8306 19.3673 13.6701 23.4475 15.85 26.2711L12.3916 29.7296C12.3916 29.7296 10.8358 25.1984 10.8312 25.1864C10.3605 23.8779 10.1394 22.5014 10.1741 21.0945C10.2455 18.1983 11.429 15.4681 13.5063 13.4068C15.5837 11.3455 18.3232 10.1829 21.2203 10.1333C23.5116 10.0935 25.7326 10.7421 27.6331 12.0036C27.6306 12.002 27.6356 12.0053 27.6331 12.0036C28.3121 12.4552 28.9478 12.9842 29.5149 13.5722C29.699 13.763 29.9442 13.859 30.1898 13.859C30.424 13.859 30.6586 13.7717 30.8404 13.5963C31.2132 13.2369 31.224 12.6434 30.8645 12.2707C30.5417 11.9359 30.2005 11.6184 29.844 11.3195C31.457 10.51 33.2402 10.1018 35.075 10.1333C36.442 10.1567 37.7769 10.4269 39.0425 10.9364C39.5222 11.1297 40.0689 10.8972 40.2623 10.4168C40.4557 9.93647 40.223 9.39039 39.7427 9.19708C38.2638 8.60159 36.7041 8.28584 35.107 8.25847C32.6403 8.21516 30.2458 8.85546 28.1477 10.1121C26.0494 8.85537 23.6562 8.21516 21.1882 8.25847C17.8053 8.3165 14.6082 9.6722 12.1858 12.0757C9.76323 14.4795 8.38316 17.666 8.29982 21.0482C8.25913 22.6968 8.52041 24.311 9.07605 25.846C9.0769 25.8484 9.07784 25.8509 9.07868 25.8533L10.0423 28.6606C9.96329 28.6537 9.8836 28.6496 9.80336 28.6496C9.09096 28.6496 8.42132 28.927 7.9176 29.4307L0.274566 37.0738C-0.091522 37.4399 -0.091522 38.0335 0.274566 38.3997C0.640748 38.7657 1.23436 38.7658 1.60045 38.3997L9.24358 30.7564C9.39311 30.6069 9.59195 30.5245 9.80354 30.5245C10.015 30.5245 10.2139 30.6068 10.3634 30.7564L12.6906 33.0836C12.8402 33.2332 12.9227 33.432 12.9227 33.6436C12.9227 33.8551 12.8402 34.0539 12.6906 34.2036L1.31733 45.5769C0.951243 45.943 0.951243 46.5366 1.31733 46.9027C1.50042 47.0858 1.74032 47.1773 1.98023 47.1773C2.22013 47.1773 2.46003 47.0857 2.64312 46.9027L12.8132 36.7325L15.1577 43.5623C15.9013 45.7286 17.9399 47.1842 20.2303 47.1842C22.7204 47.1842 24.8651 45.493 25.4457 43.0714L26.7374 37.6835C26.934 36.8634 27.595 36.5712 28.148 36.5712C28.7008 36.5712 29.3617 36.8634 29.5584 37.6835L30.8501 43.0714C31.4308 45.493 33.5754 47.1842 36.0655 47.1842C38.356 47.1842 40.3945 45.7286 41.1381 43.5623L47.2159 25.8563C47.2172 25.8529 47.2184 25.8494 47.2196 25.8461C47.7755 24.3112 48.0365 22.6971 47.9959 21.0483ZM17.7293 18.0292C18.7382 16.9844 20.0937 16.3951 21.5457 16.3698C21.5784 16.3692 21.6107 16.3689 21.6432 16.3689C23.0593 16.3689 24.3964 16.9087 25.4178 17.8951C26.4627 18.904 27.052 20.2593 27.0773 21.7115C27.1027 23.1636 26.5609 24.5387 25.552 25.5835C24.5431 26.6283 23.1876 27.2176 21.7356 27.2429C20.28 27.2695 18.9083 26.7267 17.8635 25.7176C15.7069 23.635 15.6467 20.1859 17.7293 18.0292Z" fill="#4F4BC1"/>
<path d="M42.9746 13.2331C43.4924 13.2331 43.9121 12.8134 43.9121 12.2956C43.9121 11.7778 43.4924 11.3581 42.9746 11.3581C42.4568 11.3581 42.0371 11.7778 42.0371 12.2956C42.0371 12.8134 42.4568 13.2331 42.9746 13.2331Z" fill="#4F4BC1"/>
</g>
<defs>
<clipPath id="clip0_202_297">
<rect width="48" height="48" fill="white"/>
</clipPath>
</defs>
</svg>
