<svg width="48" height="48" viewBox="0 0 48 48" fill="none" xmlns="http://www.w3.org/2000/svg">
<g clip-path="url(#clip0_444_226)">
<path d="M0.750413 18C1.05533 18 1.33612 17.8081 1.44827 17.5251C1.56365 17.234 1.48169 16.8909 1.24567 16.6844C1.00619 16.4748 0.650584 16.4404 0.374974 16.599C0.0992145 16.7577 -0.0481678 17.0843 0.0141805 17.3961C0.0834398 17.7422 0.396984 18 0.750413 18Z" fill="#4F4BC1"/>
<path d="M38.5145 18.1756C38.632 16.565 38.4493 15.0408 37.9702 13.6394C36.7571 10.0913 34.2584 7.47445 31.1146 6.45963C26.7455 5.04942 23.009 7.17667 20.5784 8.8995C19.805 9.44745 18.7658 9.44745 17.9925 8.8995C15.5618 7.17667 11.8252 5.04952 7.45623 6.45963C4.60705 7.37927 2.30738 9.57915 0.980669 12.6539C0.774517 13.1316 0.992197 13.6872 1.46692 13.8948C1.94136 14.1023 2.49349 13.8832 2.69974 13.4054C3.8083 10.8361 5.70072 9.00735 8.0286 8.256C11.53 7.12574 14.6826 8.87888 16.7868 10.3526C17.5118 11.6686 18.6844 12.6473 20.1121 13.1221C20.7241 13.3256 21.353 13.4266 21.9793 13.4266C22.8932 13.4266 23.8015 13.2114 24.6416 12.7857C25.1038 12.5516 25.2899 11.9844 25.0572 11.5192C24.8245 11.0538 24.2611 10.8665 23.7989 11.1008C22.8301 11.5916 21.7296 11.6733 20.7 11.3309C20.5106 11.2679 20.3278 11.192 20.1525 11.1039C20.6834 10.9895 21.1962 10.769 21.6574 10.442C23.7606 8.95133 26.9698 7.1031 30.5424 8.25608C33.1178 9.08738 35.1792 11.2733 36.1981 14.2532C36.5818 15.3758 36.7347 16.6046 36.6538 17.9124C36.4083 17.8973 36.1609 17.8895 35.9117 17.8895C29.2463 17.8895 23.8235 23.3881 23.8235 30.1468C23.8235 33.4752 25.1387 36.4979 27.2696 38.7089C27.092 39.0877 26.9163 39.4633 26.7436 39.8332C26.3424 40.6922 25.5429 40.9219 24.9291 40.8503C24.3147 40.7788 23.5882 40.3713 23.3926 39.4423L21.1872 28.9768C21.1838 28.9604 21.1798 28.944 21.1755 28.9277C20.9425 28.0553 20.183 27.469 19.2854 27.469C18.3879 27.469 17.6283 28.0553 17.3954 28.9277C17.3911 28.944 17.3872 28.9604 17.3837 28.9768L15.1783 39.4423C14.9825 40.3713 14.2562 40.7788 13.6417 40.8503C13.0274 40.9217 12.2283 40.6923 11.8272 39.8332C8.33257 32.3495 6.12924 27.9168 5.27809 26.6581C4.06084 24.858 3.15253 23.0425 2.57866 21.262C2.41899 20.7666 1.89019 20.4952 1.39813 20.656C0.905894 20.8167 0.636296 21.3488 0.795974 21.8443C1.42475 23.7948 2.41149 25.7716 3.72874 27.7197C4.50192 28.8631 6.77563 33.4502 10.131 40.6357C10.7462 41.9532 12.0055 42.75 13.4163 42.75C13.5617 42.75 13.709 42.7415 13.857 42.7243C15.4422 42.5396 16.6805 41.405 17.0116 39.8338L19.2104 29.3995C19.2189 29.3739 19.2332 29.3555 19.2853 29.3555C19.3375 29.3555 19.3517 29.3739 19.3604 29.3996L21.5592 39.8336C21.8902 41.4049 23.1285 42.5396 24.7137 42.7241C26.2987 42.9086 27.761 42.0889 28.4398 40.6356C28.5372 40.4267 28.6358 40.2162 28.735 40.0042C30.7435 41.5117 33.2267 42.404 35.9118 42.404C42.5773 42.404 48 36.9054 48 30.1467C48 24.2938 43.9333 19.3859 38.5145 18.1756ZM35.9118 40.5176C30.2798 40.5176 25.6978 35.8652 25.6978 30.1467C25.6978 24.4282 30.2798 19.7759 35.9118 19.7759C41.5438 19.7759 46.1258 24.4282 46.1258 30.1467C46.1258 35.8652 41.5438 40.5176 35.9118 40.5176Z" fill="#4F4BC1"/>
<path d="M39.9828 26.7118H38.7344V25.3799C38.7344 24.2054 37.8295 23.25 36.7171 23.25H34.5327C33.4204 23.25 32.5155 24.2054 32.5155 25.3799V26.7118H31.2671C30.1549 26.7118 29.25 27.6673 29.25 28.8417V31.1583C29.25 32.3326 30.1549 33.2882 31.2671 33.2882H32.5155V34.6201C32.5155 35.7945 33.4204 36.75 34.5327 36.75H36.7171C37.8295 36.75 38.7344 35.7946 38.7344 34.6201V33.2882H39.9828C41.095 33.2882 42 32.3327 42 31.1583V28.8417C42 27.6673 41.095 26.7118 39.9828 26.7118ZM40.1763 31.1582C40.1763 31.2755 40.0894 31.3709 39.9828 31.3709H37.8226C37.3189 31.3709 36.9106 31.8001 36.9106 32.3295V34.62C36.9106 34.7374 36.8239 34.8328 36.7171 34.8328H34.5327C34.426 34.8328 34.3392 34.7374 34.3392 34.62V32.3295C34.3392 31.8001 33.931 31.3709 33.4274 31.3709H31.2671C31.1605 31.3709 31.0737 31.2755 31.0737 31.1582V28.8416C31.0737 28.7243 31.1605 28.6289 31.2671 28.6289H33.4274C33.931 28.6289 34.3392 28.1997 34.3392 27.6703V25.3799C34.3392 25.2626 34.426 25.1671 34.5327 25.1671H36.7171C36.8239 25.1671 36.9106 25.2626 36.9106 25.3799V27.6704C36.9106 28.1999 37.3189 28.629 37.8226 28.629H39.9828C40.0894 28.629 40.1763 28.7244 40.1763 28.8417V31.1582Z" fill="#4F4BC1"/>
</g>
<defs>
<clipPath id="clip0_444_226">
<rect width="48" height="48" fill="white"/>
</clipPath>
</defs>
</svg>
