<svg width="48" height="48" viewBox="0 0 48 48" fill="none" xmlns="http://www.w3.org/2000/svg">
<g clip-path="url(#clip0_202_266)">
<path d="M41.6083 31.9626L36.1121 37.4604C35.1728 38.4 34.0599 39.1032 32.846 39.5403C33.0061 39.1245 33.0948 38.6736 33.0948 38.202C33.0948 36.1419 31.419 34.4658 29.3591 34.4657H21.935L20.5336 33.0383C18.6442 31.1138 16.0137 30.0101 13.3168 30.0101C11.1078 30.0101 8.925 30.7495 7.17066 32.0919L4.06847 34.4657H0.9375C0.419813 34.4657 0 34.8854 0 35.4032C0 35.921 0.419813 36.3407 0.9375 36.3407H4.38591C4.59188 36.3407 4.79203 36.2729 4.95563 36.1477L8.31 33.5809C9.73903 32.4873 11.5172 31.8852 13.3166 31.8851C15.5137 31.8851 17.6564 32.7842 19.1955 34.3519L20.8725 36.06C21.0487 36.2396 21.2899 36.3407 21.5415 36.3407H29.3591C30.385 36.3407 31.2198 37.1758 31.2198 38.202C31.2198 39.2282 30.3849 40.0632 29.3587 40.0632L17.0468 40.0634C16.5291 40.0634 16.1093 40.4832 16.1093 41.0009C16.1093 41.5186 16.5292 41.9384 17.0468 41.9384H29.8294C32.7038 41.9384 35.406 40.8189 37.4382 38.786L42.9344 33.2882C43.6595 32.5627 44.8426 32.5599 45.5714 33.2819C45.9273 33.6344 46.1239 34.1043 46.125 34.6052C46.1262 35.1061 45.9318 35.577 45.5776 35.9311L39.4352 42.0735C36.8226 44.6862 33.3488 46.125 29.6538 46.125H0.9375C0.419813 46.125 0 46.5448 0 47.0625C0 47.5803 0.419813 48 0.9375 48H29.6538C33.8497 48 37.7943 46.3661 40.7612 43.3993L46.9036 37.2569C47.613 36.5474 48.0025 35.604 48.0001 34.6006C47.9977 33.5973 47.6038 32.6559 46.8911 31.9499C45.431 30.5034 43.0613 30.5093 41.6083 31.9626Z" fill="#4F4BC1"/>
<path d="M16.566 15.1763L20.348 26.194C20.8598 27.6855 22.2632 28.6875 23.8401 28.6875C25.5543 28.6875 27.0308 27.5232 27.4305 25.8562L28.2345 22.5026C28.3256 22.1228 28.6381 22.0818 28.7682 22.0818C28.8983 22.0818 29.2108 22.1229 29.3018 22.5026L30.1058 25.8562C30.5055 27.5232 31.982 28.6875 33.6963 28.6875C35.273 28.6875 36.6765 27.6855 37.1884 26.1941L40.9705 15.1763C40.9709 15.1751 40.9714 15.1738 40.9719 15.1726C41.3327 14.1759 41.5022 13.1277 41.476 12.0572C41.4219 9.86018 40.5257 7.79075 38.9527 6.2299C37.3799 4.66925 35.3034 3.78903 33.1061 3.75134C31.5751 3.72378 30.0868 4.10309 28.7683 4.84943C27.4499 4.10328 25.9636 3.725 24.4306 3.75134C24.3913 3.752 24.3521 3.75303 24.313 3.75415C23.7954 3.76972 23.3885 4.20181 23.4041 4.7194C23.4196 5.237 23.8544 5.64359 24.3692 5.62831C24.4003 5.62737 24.4312 5.62662 24.4625 5.62606C25.8133 5.60168 27.129 5.98568 28.2518 6.731C28.2505 6.73015 28.2531 6.73184 28.2518 6.731C28.6535 6.99809 29.0292 7.31075 29.3644 7.65837C29.5485 7.84915 29.7937 7.94506 30.0393 7.94506C30.2735 7.94506 30.5081 7.85778 30.69 7.68237C31.0627 7.32293 31.0735 6.7294 30.7141 6.35675C30.6328 6.27247 30.5491 6.19034 30.4643 6.10943C31.287 5.77625 32.1715 5.61031 33.0736 5.62606C34.7852 5.6554 36.4039 6.34259 37.6319 7.56087C38.8598 8.77925 39.5593 10.3925 39.6014 12.1033C39.6218 12.9336 39.4918 13.7456 39.2149 14.5171C39.2108 14.5277 35.415 25.5854 35.415 25.5854C35.163 26.3195 34.4722 26.8126 33.6962 26.8126C32.8525 26.8126 32.1258 26.2396 31.9291 25.4191L31.1251 22.0656C30.8585 20.9538 29.9114 20.2069 28.7681 20.2069C27.6248 20.2069 26.6776 20.9538 26.4109 22.0656L25.6069 25.4191C25.4102 26.2395 24.6836 26.8126 23.8399 26.8126C23.0639 26.8126 22.3731 26.3195 22.1212 25.5854C22.1212 25.5854 18.3254 14.5277 18.3212 14.5171C18.0443 13.7454 17.9143 12.9334 17.9348 12.1033C17.956 11.2425 18.1422 10.4068 18.4882 9.61962C18.6966 9.14562 18.4813 8.5925 18.0073 8.38409C17.5334 8.17578 16.9801 8.39093 16.7717 8.86503C16.3269 9.87696 16.0875 10.951 16.0603 12.0572C16.0339 13.1275 16.2034 14.1757 16.5644 15.1727C16.565 15.1739 16.5655 15.1751 16.566 15.1763Z" fill="#4F4BC1"/>
<path d="M10.1104 3.98609C10.7573 3.98609 11.2838 4.5125 11.2838 5.15956C11.2838 5.67734 11.7036 6.09706 12.2213 6.09706C12.739 6.09706 13.1588 5.67734 13.1588 5.15956C13.1588 4.5155 13.6804 3.99087 14.3235 3.98609H14.3324C14.8502 3.98609 15.2699 3.56628 15.2699 3.04859C15.2699 2.53081 14.8501 2.11109 14.3324 2.11109C13.6853 2.11109 13.1588 1.58468 13.1588 0.937622C13.1588 0.419841 12.739 0.00012207 12.2213 0.00012207C11.7036 0.00012207 11.2838 0.419841 11.2838 0.937622C11.2838 1.58168 10.7623 2.10631 10.1193 2.11109C10.1163 2.11109 10.1134 2.11109 10.1104 2.11109C9.59257 2.11109 9.17285 2.5309 9.17285 3.04859C9.17285 3.56637 9.59257 3.98609 10.1104 3.98609Z" fill="#4F4BC1"/>
<path d="M42.8408 24.9375C43.4879 24.9375 44.0144 25.4639 44.0144 26.1111C44.0144 26.6289 44.4342 27.0486 44.9519 27.0486C45.4696 27.0486 45.8894 26.6289 45.8894 26.1111C45.8894 25.464 46.4158 24.9375 47.0629 24.9375C47.5806 24.9375 48.0004 24.5178 48.0004 24C48.0004 23.4823 47.5806 23.0625 47.0629 23.0625C46.4159 23.0625 45.8894 22.5361 45.8894 21.889C45.8894 21.3712 45.4696 20.9515 44.9519 20.9515C44.4342 20.9515 44.0144 21.3712 44.0144 21.889C44.0144 22.536 43.488 23.0625 42.8408 23.0625C42.3231 23.0625 41.9033 23.4823 41.9033 24C41.9033 24.5178 42.323 24.9375 42.8408 24.9375Z" fill="#4F4BC1"/>
<path d="M20.3301 6.93781C20.8478 6.93781 21.2676 6.51807 21.2676 6.00031C21.2676 5.48254 20.8478 5.06281 20.3301 5.06281C19.8123 5.06281 19.3926 5.48254 19.3926 6.00031C19.3926 6.51807 19.8123 6.93781 20.3301 6.93781Z" fill="#4F4BC1"/>
</g>
<defs>
<clipPath id="clip0_202_266">
<rect width="48" height="48" fill="white"/>
</clipPath>
</defs>
</svg>
