<svg aria-hidden="true" style="position: absolute; width: 0; height: 0; overflow: hidden;" version="1.1" xmlns="http://www.w3.org/2000/svg" xmlns:xlink="http://www.w3.org/1999/xlink">
<defs>
<symbol id="icon-burger" viewBox="0 0 32 32">
  <path d="M3.2 8c0-0.442 0.358-0.8 0.8-0.8h24c0.442 0 0.8 0.358 0.8 0.8s-0.358 0.8-0.8 0.8h-24c-0.442 0-0.8-0.358-0.8-0.8z"></path>
  <path d="M11.2 16c0-0.442 0.358-0.8 0.8-0.8h16c0.442 0 0.8 0.358 0.8 0.8s-0.358 0.8-0.8 0.8h-16c-0.442 0-0.8-0.358-0.8-0.8z"></path>
  <path d="M8.533 24c0-0.442 0.358-0.8 0.8-0.8h18.667c0.442 0 0.8 0.358 0.8 0.8s-0.358 0.8-0.8 0.8h-18.667c-0.442 0-0.8-0.358-0.8-0.8z"></path>
</symbol>
</defs>
</svg>
