<svg width="272" height="112" viewBox="0 0 272 112" fill="none" xmlns="http://www.w3.org/2000/svg">
<path d="M229.08 23.0163C225.348 23.2667 221.577 23.9831 217.7 25.1793C216.014 25.701 211.875 27.3076 211.875 27.4467C211.875 27.4676 212.335 27.3424 212.895 27.1824C220.918 24.7968 223.93 24.1848 228.689 23.9413C235.249 23.6075 239.847 25.2419 242.498 28.8586C244.33 31.3555 245.226 34.7635 245.226 39.2843C245.234 44.146 244.169 48.0687 241.602 52.673C240.659 54.37 240.115 55.1907 238.314 57.6807C236.613 60.0315 235.969 60.9983 235.241 62.2989C233.946 64.5941 233.195 66.778 232.835 69.2262C232.643 70.5476 232.567 71.7022 232.49 74.4077C232.398 77.8436 232.344 78.8451 232.214 80.25C231.402 89.0413 229.716 95.8713 227.018 101.289C226.474 102.381 225.302 104.384 224.673 105.289C223.11 107.556 221.363 109.044 219.631 109.594L219.309 109.698V108.397C219.309 107.681 219.347 106.735 219.386 106.297C219.585 104.273 219.677 103.633 220.566 98.1247C221.232 94.0212 221.332 92.9362 221.332 89.9525C221.332 87.4486 221.278 86.607 220.987 84.6666C220.374 80.563 219.094 77.4193 216.995 74.8459C216.527 74.2686 214.642 72.4673 214.573 72.5299C214.55 72.5438 214.857 72.9124 215.255 73.3436C216.504 74.7138 217.286 75.8614 217.991 77.3637C219.033 79.5824 219.585 81.6272 220.014 84.91C220.152 85.9533 220.152 91.3296 220.014 92.5259C219.508 96.9284 219.056 99.3488 218.006 103.272C217.5 105.149 217.324 105.914 217.163 106.93C216.734 109.615 217.209 111.242 218.566 111.799C219.156 112.042 220.152 112.028 220.826 111.771C221.731 111.43 222.574 110.853 223.838 109.712C226.145 107.625 228.183 105.003 229.854 101.971C232.314 97.5057 234 92.2268 235.287 84.91C235.854 81.6967 236.107 79.4919 236.398 75.4162C236.835 69.2123 236.965 68.1829 237.517 66.4441C238.138 64.4619 239.149 62.5214 241.418 58.9395C243.05 56.3592 243.77 55.1212 244.445 53.7858C246.154 50.3986 247.073 47.4775 247.525 44.0138C247.656 42.9775 247.656 38.5749 247.525 37.5456C247.25 35.466 246.974 34.0958 246.537 32.7117C244.659 26.779 241.149 24.0248 234.329 23.1415C233.563 23.0441 229.961 22.9537 229.08 23.0163Z" fill="white"/>
<path d="M240.97 0.103478C225.459 1.13125 222.418 2.13732 212.229 5.65345C230.146 3.06695 240.897 2.82534 251.715 6.05922C298.476 20.0372 230.535 86.6178 190.693 104.845C171.068 113.823 168.015 100.556 169.347 83.9697C169.347 83.9697 162.504 104.32 175.125 109.459C187.747 114.597 213.649 100.825 227.892 88.6974C254.504 66.4975 272.448 37.9255 271.991 22.0978C271.535 5.65345 256.481 -0.92429 240.97 0.103478Z" fill="white"/>
<path d="M212.229 8.32566C217.805 6.81826 230.538 4.29679 236.864 6.27012C237.776 9.55899 238.081 11.8201 240.514 13.8756H238.841C238.37 13.3669 237.437 12.1383 237.208 11.0441C237.547 13.1669 237.728 14.0888 237.776 14.2867H235.648L234.127 10.7923L233.975 14.9034L231.694 15.5201L231.086 11.409L230.781 15.7256L228.5 16.3423L227.74 11.6145L227.436 16.7534L225.763 17.3701L224.699 12.6423V17.7812L223.482 18.3978L222.266 12.2312V19.2201L219.224 20.8645V12.8479L217.856 21.2756C216.994 21.7552 215.271 22.6734 215.271 22.5089V17.3701L213.142 23.3311C212.483 23.6052 211.195 24.1122 211.317 23.9478C211.439 23.7834 211.976 20.8645 212.229 19.4256L210.405 24.1534H208.124C209.441 21.3846 212.138 15.0827 212.381 12.0256C212.26 9.2301 212.229 8.39418 212.229 8.32566Z" fill="white"/>
<path d="M126.628 65.9207C128.425 65.9207 129.81 65.1711 130.784 63.6718C131.795 62.1332 132.525 59.8251 132.974 56.7478C133.386 53.5126 133.274 51.1651 132.637 49.7053C132.038 48.2455 130.859 47.5157 129.099 47.5157C129.099 47.5157 128.781 47.5157 128.144 47.5157C127.844 47.5157 127.545 47.5354 127.245 47.5748L124.774 65.9207C125.411 65.9207 126.029 65.9207 126.628 65.9207ZM122.415 43.2547C122.415 43.2547 124.662 43.1955 129.155 43.0771C130.952 43.0771 132.506 43.2744 133.816 43.6689C135.164 44.024 136.25 44.7145 137.074 45.7403C138.647 47.7918 139.115 51.461 138.478 56.7478C137.542 64.2045 134.827 68.5443 130.334 69.7674C128.912 70.1619 127.376 70.3592 125.729 70.3592C124.082 70.3592 122.678 70.3197 121.517 70.2408C120.356 70.1619 119.457 70.1225 118.821 70.1225L122.415 43.2547Z" fill="white"/>
<path d="M140.993 70.1225L144.587 43.2547H158.347L157.673 47.8707H149.417L148.575 54.0847H154.865L154.303 58.4048H147.957L147.002 65.5064H155.37L154.809 70.1225H140.993Z" fill="white"/>
<path d="M168.38 43.2547L174.165 60.121H174.221C174.296 59.8843 174.39 58.898 174.502 57.162L176.356 43.2547H181.129L177.535 70.1225H172.761L166.808 53.197C166.77 53.4731 166.733 53.8874 166.696 54.4397C166.658 54.9921 166.583 55.5839 166.471 56.2151L164.674 70.1225H159.956L163.55 43.2547H168.38Z" fill="white"/>
<path d="M198.583 47.8707H193.416L190.439 70.1225H185.047L187.968 47.8707H182.745L183.306 43.2547H199.257L198.583 47.8707Z" fill="white"/>
<path d="M208.274 48.5217C208.012 49.1924 207.712 50.0407 207.375 51.0665C207.038 52.0923 206.664 53.197 206.252 54.3806C205.84 55.5247 205.409 56.728 204.96 57.9905C204.548 59.2136 204.118 60.4169 203.668 61.6005H209.172C209.097 60.4169 209.004 59.2136 208.891 57.9905C208.779 56.728 208.686 55.5247 208.611 54.3806C208.536 53.197 208.461 52.0923 208.386 51.0665C208.311 50.0407 208.274 49.1924 208.274 48.5217ZM205.859 43.2547H212.317L215.687 70.1225H210.015L209.509 65.4472H202.377L200.579 70.1225H195.188L205.859 43.2547Z" fill="white"/>
<path d="M217.524 70.1225L221.118 43.2547H226.51L223.477 65.5064H231.059L230.105 70.1225H217.524Z" fill="white"/>
<path d="M16.7433 59.5884H10.1722L8.76813 70.1225H3.32031L6.91474 43.2547H20.2254L19.6076 47.8707H11.7448L10.7338 55.2091H17.3049L16.7433 59.5884Z" fill="white"/>
<path d="M29.2195 48.5217C28.9574 49.1924 28.6578 50.0407 28.3209 51.0665C27.9839 52.0923 27.6095 53.197 27.1976 54.3806C26.7857 55.5247 26.3551 56.728 25.9058 57.9905C25.494 59.2136 25.0634 60.4169 24.6141 61.6005H30.1181C30.0432 60.4169 29.9496 59.2136 29.8373 57.9905C29.7249 56.728 29.6313 55.5247 29.5564 54.3806C29.4816 53.197 29.4067 52.0923 29.3318 51.0665C29.2569 50.0407 29.2195 49.1924 29.2195 48.5217ZM26.8045 43.2547H33.2632L36.633 70.1225H30.9605L30.4551 65.4472H23.3224L21.5251 70.1225H16.1335L26.8045 43.2547Z" fill="white"/>
<path d="M58.9693 53.0194L52.9037 67.8736H49.1969C49.122 67.2424 48.8787 65.6445 48.4668 63.08C48.0549 60.4761 47.7741 58.681 47.6244 57.6946C47.3248 55.2485 47.1189 53.6901 47.0066 53.0194L43.6929 70.1225H38.4698L44.4231 43.2547H49.7024C49.7398 43.6492 49.8334 44.2805 49.9832 45.1485C50.133 45.977 50.2827 46.9239 50.4325 47.9891C50.6197 49.0149 50.8069 50.1393 50.9941 51.3624C51.1813 52.5854 51.3498 53.769 51.4996 54.9132C51.6494 56.0179 51.7804 57.0437 51.8927 57.9905C52.0051 58.9374 52.0987 59.687 52.1736 60.2394C52.3233 59.7265 52.5854 58.9966 52.9598 58.0497C53.3717 57.1028 53.8023 56.0573 54.2516 54.9132C54.7009 53.769 55.1876 52.6052 55.7118 51.4215C56.236 50.1985 56.7228 49.0543 57.1721 47.9891C57.6588 46.9239 58.0707 45.977 58.4077 45.1485C58.7821 44.2805 59.0629 43.6492 59.2501 43.2547H64.5294L63.2938 70.1225H57.846C57.8835 69.6885 57.9209 69.0375 57.9584 68.1695C57.9958 67.3016 58.052 66.3349 58.1268 65.2697C58.2392 64.165 58.3141 63.0209 58.3515 61.8373C58.4264 60.6537 58.5013 59.5095 58.5761 58.4048C58.651 57.3001 58.7259 56.2743 58.8008 55.3274C58.8757 54.3411 58.9318 53.5718 58.9693 53.0194Z" fill="white"/>
<path d="M71.3807 70.1225H65.9891L69.5835 43.2547H74.9752L71.3807 70.1225Z" fill="white"/>
<path d="M76.3963 70.1225L79.9907 43.2547H85.3823L82.3495 65.5064H89.9316L88.9767 70.1225H76.3963Z" fill="white"/>
<path d="M99.1113 70.1225H93.7196L94.899 61.2455L94.4497 59.5884C93.6635 56.8661 92.8585 54.1636 92.0347 51.4807C91.2484 48.7979 90.4621 46.0559 89.6759 43.2547H95.4045C95.704 44.5172 95.9848 45.7994 96.2469 47.1014C96.5465 48.4034 96.8273 49.6461 97.0894 50.8297C97.3515 51.9739 97.5761 53.0194 97.7633 53.9663C97.9505 54.9132 98.119 55.6628 98.2688 56.2151C98.2688 56.2151 98.6245 55.4655 99.3359 53.9663C99.7852 53.0194 100.291 51.9739 100.852 50.8297C101.414 49.6461 102.013 48.4034 102.65 47.1014L104.447 43.2547H110.232C108.696 46.0559 107.18 48.7979 105.682 51.4807C104.185 54.1636 102.687 56.8661 101.189 59.5884L100.291 61.2455L99.1113 70.1225Z" fill="white"/>
<path fill-rule="evenodd" clip-rule="evenodd" d="M210.902 33.536C215.255 33.7585 219.255 33.1117 222.114 31.7346C222.474 31.5607 222.482 31.5607 222.42 31.6442C222.344 31.7694 221.125 32.3953 220.481 32.6527C219.033 33.223 217.362 33.5638 214.68 33.8211C213.178 33.9672 205.162 33.9463 203.07 33.7864C202.166 33.7168 201.024 33.6333 200.541 33.5986C200.328 33.5832 199.994 33.5583 199.612 33.53C199.13 33.4941 198.572 33.4527 198.089 33.4177C195.859 33.2439 191.414 33.2439 190.219 33.4108C188.364 33.6681 187.261 33.9533 186.019 34.4958C183.529 35.5947 181.613 37.5769 180.732 39.9556C180.534 40.4887 180.383 41.0515 180.276 41.6411H177.89C178.18 40.424 178.588 39.3596 179.191 38.2237C180.471 35.8033 182.234 34.0437 184.333 33.0908C186.372 32.1658 189.161 31.6511 192.15 31.6511C192.962 31.6511 195.514 31.7972 196.365 31.8876C196.473 31.8999 196.575 31.9116 196.673 31.9227C197.791 32.0502 198.304 32.1086 199.354 32.2493C200.048 32.3364 201.56 32.5397 202.779 32.7037L202.917 32.7222C206.81 33.2578 208.366 33.4108 210.902 33.536ZM190.686 73.2309C190.742 73.5286 190.755 73.805 190.755 74.2513C190.755 75.2667 190.663 75.5867 189.721 77.7984C189.361 78.64 188.977 79.6067 188.87 79.9545C188.288 81.7976 187.805 83.6268 187.544 84.9622C186.878 88.4537 187.192 93.1762 188.502 99.2202C188.587 99.6027 188.793 100.618 188.962 101.481C189.567 104.499 190.05 106.078 190.778 107.434C192.112 109.924 194.25 110.251 195.392 108.137C196.012 107.003 196.258 106.113 197.101 101.898C197.193 101.46 197.415 100.486 197.606 99.7418C199.553 92.0216 201.852 86.1932 204.718 81.6515C207.745 76.8734 211.707 73.1176 216.535 70.4399C217.071 70.1478 217.485 69.9043 217.454 69.9043C217.355 69.9043 216.359 70.3773 215.324 70.9128C209.255 74.0844 204.411 79.1199 200.687 86.1515C198.173 90.8949 196.089 96.5077 193.951 104.29C193.614 105.508 193.33 106.523 193.315 106.537C193.261 106.586 192.572 103.943 192.227 102.357C191.338 98.2743 190.993 94.8871 191.062 90.7836C191.115 87.2991 191.391 85.2404 192.15 82.4931C192.503 81.2273 192.778 80.5248 193.506 79.0921C194.84 76.4491 194.985 75.997 194.978 74.4252C194.976 74.0057 194.954 73.6125 194.909 73.2309H190.686Z" fill="white"/>
</svg>
