<svg width="190" height="78" viewBox="0 0 190 78" fill="none" xmlns="http://www.w3.org/2000/svg">
<path d="M160.019 16.0291C157.412 16.2034 154.778 16.7023 152.069 17.5355C150.892 17.8987 148.001 19.0176 148.001 19.1145C148.001 19.1291 148.322 19.0419 148.713 18.9305C154.318 17.2691 156.421 16.8428 159.746 16.6733C164.328 16.4408 167.54 17.5791 169.392 20.0978C170.671 21.8367 171.298 24.2101 171.298 27.3586C171.303 30.7444 170.559 33.4762 168.766 36.6828C168.107 37.8647 167.727 38.4362 166.469 40.1703C165.281 41.8075 164.831 42.4808 164.323 43.3866C163.418 44.985 162.893 46.5059 162.642 48.2109C162.508 49.1312 162.454 49.9353 162.401 51.8195C162.337 54.2123 162.299 54.9098 162.208 55.8883C161.641 62.0108 160.463 66.7673 158.579 70.5406C158.199 71.3011 157.38 72.6961 156.941 73.3258C155.849 74.9048 154.628 75.9414 153.418 76.3241L153.193 76.3967V75.4909C153.193 74.992 153.22 74.3333 153.247 74.0281C153.386 72.6186 153.45 72.173 154.071 68.3367C154.537 65.4789 154.607 64.7233 154.607 62.6453C154.607 60.9016 154.569 60.3155 154.366 58.9641C153.938 56.1062 153.044 53.9169 151.577 52.1247C151.25 51.7227 149.933 50.4681 149.885 50.5117C149.869 50.5214 150.083 50.7781 150.362 51.0784C151.234 52.0326 151.78 52.8319 152.273 53.8781C153.001 55.4233 153.386 56.8473 153.686 59.1336C153.782 59.8602 153.782 63.6044 153.686 64.4375C153.333 67.5036 153.017 69.1892 152.283 71.9211C151.93 73.2289 151.807 73.7617 151.695 74.4689C151.395 76.3386 151.727 77.472 152.674 77.8595C153.086 78.0291 153.782 78.0194 154.253 77.8402C154.885 77.6028 155.474 77.2008 156.357 76.4064C157.968 74.9533 159.392 73.1272 160.559 71.0153C162.278 67.9056 163.455 64.2292 164.355 59.1336C164.751 56.8958 164.927 55.3603 165.131 52.5219C165.436 48.2012 165.527 47.4844 165.912 46.2734C166.346 44.893 167.053 43.5416 168.637 41.047C169.777 39.25 170.28 38.3878 170.752 37.4578C171.945 35.0989 172.588 33.0645 172.903 30.6523C172.994 29.9306 172.994 26.8645 172.903 26.1476C172.711 24.6994 172.518 23.7451 172.213 22.7812C170.901 18.6495 168.45 16.7314 163.685 16.1162C163.15 16.0484 160.634 15.9855 160.019 16.0291Z" fill="#4F4BC1"/>
<path d="M168.325 0.0720651C157.49 0.787832 155.365 1.48849 148.248 3.93722C160.764 2.13591 168.274 1.96765 175.831 4.21982C208.495 13.9545 161.036 60.3231 133.205 73.0173C119.496 79.2699 117.364 70.0302 118.294 58.4789C118.294 58.4789 113.514 72.6512 122.33 76.23C131.147 79.8089 149.24 70.2175 159.189 61.7714C177.778 46.3108 190.313 26.4124 189.994 15.3895C189.675 3.93723 179.159 -0.643702 168.325 0.0720651Z" fill="#F497AC"/>
<path d="M148.248 5.79823C152.143 4.74843 161.038 2.99241 165.457 4.36669C166.094 6.65715 166.306 8.23185 168.006 9.66339H166.837C166.509 9.30912 165.857 8.45347 165.697 7.69141C165.934 9.16983 166.06 9.81187 166.094 9.9497H164.607L163.545 7.51608L163.438 10.3792L161.845 10.8086L161.42 7.94554L161.208 10.9518L159.614 11.3812L159.083 8.08869L158.871 11.6675L157.702 12.097L156.959 8.80446V12.3833L156.109 12.8128L155.259 8.51816V13.3854L153.135 14.5306V8.94762L152.179 14.8169C151.577 15.151 150.373 15.7904 150.373 15.6759V12.097L148.886 16.2485C148.426 16.4393 147.526 16.7925 147.611 16.6779C147.696 16.5634 148.071 14.5306 148.248 13.5285L146.974 16.8211H145.38C146.301 14.8928 148.185 10.504 148.355 8.375C148.27 6.42811 148.248 5.84595 148.248 5.79823Z" fill="#F497AC"/>
<path d="M88.4531 45.9089C89.7085 45.9089 90.6762 45.3868 91.3563 44.3427C92.0624 43.2711 92.5724 41.6638 92.8863 39.5206C93.174 37.2675 93.0955 35.6327 92.6509 34.6161C92.2324 33.5994 91.4086 33.0911 90.1793 33.0911C90.1793 33.0911 89.957 33.0911 89.5124 33.0911C89.3031 33.0911 89.0939 33.1048 88.8847 33.1323L87.1585 45.9089C87.6031 45.9089 88.0347 45.9089 88.4531 45.9089ZM85.5108 30.1236C85.5108 30.1236 87.08 30.0824 90.2185 30C91.474 30 92.5593 30.1374 93.4748 30.4121C94.4163 30.6594 95.1748 31.1403 95.7502 31.8547C96.8487 33.2834 97.1756 35.8388 96.731 39.5206C96.0771 44.7137 94.1809 47.7361 91.0424 48.5879C90.0485 48.8626 88.9762 49 87.8254 49C86.6746 49 85.6938 48.9725 84.8831 48.9176C84.0723 48.8626 83.4446 48.8351 82.9999 48.8351L85.5108 30.1236Z" fill="#4F4BC1"/>
<path d="M98.4876 48.8351L100.998 30.1236H110.61L110.139 33.3384H104.372L103.784 37.6659H108.178L107.785 40.6746H103.352L102.685 45.6204H108.531L108.139 48.8351H98.4876Z" fill="#4F4BC1"/>
<path d="M117.619 30.1236L121.66 41.8698H121.699C121.751 41.705 121.816 41.0181 121.895 39.8091L123.19 30.1236H126.524L124.013 48.8351H120.679L116.52 37.0477C116.494 37.2401 116.468 37.5286 116.442 37.9132C116.416 38.2979 116.363 38.71 116.285 39.1497L115.029 48.8351H111.734L114.245 30.1236H117.619Z" fill="#4F4BC1"/>
<path d="M138.716 33.3384H135.107L133.027 48.8351H129.261L131.301 33.3384H127.653L128.045 30.1236H139.187L138.716 33.3384Z" fill="#4F4BC1"/>
<path d="M145.485 33.7918C145.302 34.2589 145.093 34.8496 144.858 35.564C144.622 36.2784 144.361 37.0477 144.073 37.872C143.785 38.6688 143.484 39.5069 143.171 40.3861C142.883 41.2379 142.582 42.0759 142.268 42.9002H146.113C146.061 42.0759 145.995 41.2379 145.917 40.3861C145.838 39.5069 145.773 38.6688 145.721 37.872C145.668 37.0477 145.616 36.2784 145.564 35.564C145.511 34.8496 145.485 34.2589 145.485 33.7918ZM143.798 30.1236H148.31L150.664 48.8351H146.701L146.348 45.5792H141.366L140.111 48.8351H136.344L143.798 30.1236Z" fill="#4F4BC1"/>
<path d="M151.947 48.8351L154.458 30.1236H158.224L156.105 45.6204H161.402L160.735 48.8351H151.947Z" fill="#4F4BC1"/>
<path d="M11.6957 41.4989H7.10558L6.12479 48.8351H2.31934L4.83015 30.1236H14.128L13.6965 33.3384H8.20406L7.49789 38.449H12.088L11.6957 41.4989Z" fill="#4F4BC1"/>
<path d="M20.4107 33.7918C20.2276 34.2589 20.0183 34.8496 19.783 35.564C19.5476 36.2784 19.286 37.0477 18.9983 37.872C18.7106 38.6688 18.4098 39.5069 18.096 40.3861C17.8083 41.2379 17.5075 42.0759 17.1937 42.9002H21.0384C20.9861 42.0759 20.9207 41.2379 20.8422 40.3861C20.7637 39.5069 20.6984 38.6688 20.646 37.872C20.5937 37.0477 20.5414 36.2784 20.4891 35.564C20.4368 34.8496 20.4107 34.2589 20.4107 33.7918ZM18.7237 30.1236H23.2353L25.5892 48.8351H21.6268L21.2738 45.5792H16.2914L15.0359 48.8351H11.2697L18.7237 30.1236Z" fill="#4F4BC1"/>
<path d="M41.1918 36.9241L36.9548 47.269H34.3655C34.3132 46.8294 34.1432 45.7166 33.8555 43.9306C33.5678 42.1171 33.3716 40.867 33.267 40.18C33.0578 38.4765 32.9139 37.3912 32.8355 36.9241L30.5208 48.8351H26.8723L31.0308 30.1236H34.7186C34.7447 30.3984 34.8101 30.838 34.9147 31.4425C35.0194 32.0195 35.124 32.679 35.2286 33.4208C35.3594 34.1352 35.4901 34.9183 35.6209 35.7701C35.7517 36.6218 35.8694 37.4461 35.974 38.2429C36.0786 39.0123 36.1701 39.7267 36.2486 40.3861C36.3271 41.0456 36.3925 41.5676 36.4448 41.9523C36.5494 41.5951 36.7325 41.0868 36.994 40.4273C37.2817 39.7679 37.5825 39.0398 37.8963 38.2429C38.2102 37.4461 38.5502 36.6356 38.9164 35.8113C39.2825 34.9595 39.6225 34.1627 39.9364 33.4208C40.2764 32.679 40.5641 32.0195 40.7995 31.4425C41.061 30.838 41.2572 30.3984 41.3879 30.1236H45.0757L44.2126 48.8351H40.4071C40.4333 48.5329 40.4595 48.0795 40.4856 47.4751C40.5118 46.8706 40.551 46.1974 40.6033 45.4555C40.6818 44.6862 40.7341 43.8894 40.7602 43.0651C40.8125 42.2408 40.8648 41.444 40.9172 40.6746C40.9695 39.9053 41.0218 39.1909 41.0741 38.5315C41.1264 37.8445 41.1656 37.3087 41.1918 36.9241Z" fill="#4F4BC1"/>
<path d="M49.8615 48.8351H46.0953L48.6061 30.1236H52.3724L49.8615 48.8351Z" fill="#4F4BC1"/>
<path d="M53.365 48.8351L55.8758 30.1236H59.6421L57.5236 45.6204H62.8198L62.1529 48.8351H53.365Z" fill="#4F4BC1"/>
<path d="M69.2321 48.8351H65.4659L66.2898 42.6529L65.9759 41.4989C65.4267 39.603 64.8644 37.7209 64.289 35.8525C63.7397 33.9841 63.1905 32.0745 62.6412 30.1236H66.6428C66.8521 31.0029 67.0482 31.8959 67.2313 32.8026C67.4406 33.7093 67.6367 34.5748 67.8198 35.3991C68.0029 36.196 68.1598 36.9241 68.2906 37.5835C68.4213 38.2429 68.539 38.765 68.6437 39.1497C68.6437 39.1497 68.8921 38.6276 69.3891 37.5835C69.7029 36.9241 70.056 36.196 70.4483 35.3991C70.8406 34.5748 71.2591 33.7093 71.7037 32.8026L72.9591 30.1236H76.9999C75.9276 32.0745 74.8684 33.9841 73.8222 35.8525C72.776 37.7209 71.7299 39.603 70.6837 41.4989L70.056 42.6529L69.2321 48.8351Z" fill="#4F4BC1"/>
<path fill-rule="evenodd" clip-rule="evenodd" d="M147.321 23.3553C150.362 23.5103 153.156 23.0599 155.153 22.1008C155.404 21.9797 155.41 21.9797 155.367 22.0378C155.313 22.125 154.462 22.561 154.013 22.7402C153.001 23.1374 151.834 23.3747 149.96 23.5539C148.911 23.6557 143.312 23.6411 141.85 23.5297C141.219 23.4813 140.421 23.4232 140.084 23.3989C139.935 23.3882 139.701 23.3709 139.435 23.3512C139.098 23.3262 138.709 23.2973 138.371 23.273C136.813 23.1519 133.708 23.1519 132.873 23.2682C131.578 23.4474 130.807 23.646 129.94 24.0238C128.2 24.7891 126.862 26.1696 126.246 27.8261C126.108 28.1974 126.002 28.5893 125.928 29H124.261C124.464 28.1523 124.749 27.4111 125.17 26.62C126.064 24.9344 127.295 23.7089 128.762 23.0453C130.186 22.4011 132.134 22.0427 134.222 22.0427C134.79 22.0427 136.572 22.1444 137.166 22.2074C137.242 22.2159 137.313 22.2241 137.382 22.2318C138.163 22.3206 138.521 22.3613 139.254 22.4593C139.739 22.5199 140.795 22.6615 141.647 22.7757L141.743 22.7886C144.463 23.1616 145.549 23.2682 147.321 23.3553ZM133.199 51C133.239 51.2074 133.248 51.3998 133.248 51.7106C133.248 52.4178 133.184 52.6406 132.525 54.181C132.274 54.7671 132.006 55.4403 131.931 55.6825C131.524 56.9661 131.187 58.24 131.005 59.17C130.539 61.6016 130.759 64.8905 131.674 69.0997C131.733 69.3661 131.878 70.0733 131.995 70.6739C132.418 72.7761 132.755 73.8756 133.264 74.8202C134.195 76.5542 135.689 76.7819 136.487 75.3094C136.92 74.5199 137.091 73.8999 137.68 70.9646C137.745 70.6594 137.9 69.9813 138.034 69.463C139.393 64.0864 140.999 60.0274 143.001 56.8644C145.116 53.5367 147.883 50.9211 151.256 49.0563C151.63 48.8528 151.919 48.6833 151.898 48.6833C151.828 48.6833 151.133 49.0127 150.41 49.3856C146.17 51.5944 142.787 55.1013 140.186 59.9983C138.43 63.3017 136.974 67.2106 135.48 72.6308C135.245 73.4785 135.047 74.1856 135.036 74.1953C134.998 74.2292 134.517 72.3886 134.276 71.2842C133.655 68.441 133.414 66.0821 133.462 63.2242C133.5 60.7975 133.692 59.3638 134.222 57.4505C134.468 56.5689 134.661 56.0797 135.17 55.0819C136.101 53.2413 136.203 52.9264 136.197 51.8317C136.196 51.5396 136.181 51.2657 136.149 51H133.199Z" fill="#4F4BC1"/>
</svg>
